<svg width="33" height="33" viewBox="0 0 33 33" fill="none" xmlns="http://www.w3.org/2000/svg">
<rect width="32.0056" height="32.0056" rx="16.0028" fill="#F7931B"/>
<path d="M23.1931 14.0225C23.5071 11.9261 21.9099 10.7989 19.7275 10.0467L20.4356 7.20625L18.7073 6.77617L18.0172 9.54166C17.5631 9.42764 17.097 9.32162 16.6319 9.2156L17.3271 6.43211L15.5988 6.00104L14.8906 8.84054C14.5146 8.75452 14.1445 8.67051 13.7864 8.58049L13.7884 8.57149L11.404 7.97639L10.9439 9.82271C10.9439 9.82271 12.2272 10.1168 12.2002 10.1348C12.9003 10.3098 13.0263 10.7729 13.0053 11.1409L12.1992 14.3765C12.2472 14.3885 12.3092 14.4065 12.3792 14.4335L12.1962 14.3885L11.066 18.9213C10.9799 19.1333 10.7629 19.4524 10.2728 19.3314C10.2908 19.3564 9.0166 19.0183 9.0166 19.0183L8.15845 20.9967L10.4088 21.5578C10.8269 21.6628 11.237 21.7728 11.6401 21.8758L10.9249 24.7483L12.6522 25.1784L13.3604 22.3379C13.8324 22.4649 14.2905 22.583 14.7386 22.695L14.0325 25.5235L15.7608 25.9535L16.4759 23.087C19.4244 23.6451 21.6408 23.4201 22.574 20.7536C23.3261 18.6073 22.537 17.368 20.9857 16.5609C22.1159 16.3009 22.9661 15.5577 23.1931 14.0225V14.0225ZM19.2424 19.5614C18.7093 21.7088 15.0937 20.5476 13.9215 20.2565L14.8716 16.4509C16.0438 16.7439 19.8015 17.323 19.2424 19.5614ZM19.7775 13.9914C19.2904 15.9448 16.2819 14.9516 15.3067 14.7086L16.1669 11.258C17.142 11.501 20.2856 11.9541 19.7775 13.9914Z" fill="white"/>
</svg>
