<svg width="33" height="33" viewBox="0 0 33 33" fill="none" xmlns="http://www.w3.org/2000/svg">
<g clip-path="url(#clip0_130_1412)">
<path fill-rule="evenodd" clip-rule="evenodd" d="M16.0028 0C24.8416 0 32.0056 7.16408 32.0056 16.0028C32.0056 24.8416 24.8416 32.0056 16.0028 32.0056C7.16408 32.0056 0 24.8416 0 16.0028C0 7.16408 7.16408 0 16.0028 0Z" fill="#F0B90B"/>
<path d="M8.79513 16.0028L8.80667 20.2343L12.4022 22.3501V24.8274L6.70245 21.4846V14.7654L8.79513 16.0028ZM8.79513 11.7713V14.2371L6.70117 12.9984V10.5326L8.79513 9.29395L10.8993 10.5326L8.79513 11.7713ZM13.9037 10.5326L15.9977 9.29395L18.1019 10.5326L15.9977 11.7713L13.9037 10.5326Z" fill="white"/>
<path d="M10.3086 19.3573V16.8799L12.4026 18.1186V20.5844L10.3086 19.3573ZM13.9041 23.2374L15.9981 24.4761L18.1023 23.2374V25.7032L15.9981 26.9419L13.9041 25.7032V23.2374ZM21.1054 10.5326L23.1993 9.29395L25.3035 10.5326V12.9984L23.1993 14.2371V11.7713L21.1054 10.5326ZM23.1993 20.2343L23.2109 16.0028L25.3048 14.7641V21.4833L19.6051 24.8262V22.3488L23.1993 20.2343Z" fill="white"/>
<path d="M21.6971 19.3568L19.6035 20.5837V18.1183L21.6971 16.8799V19.3568Z" fill="white"/>
<path d="M21.6978 12.6484L21.7093 15.1257L18.1036 17.2415V21.4833L16.0096 22.7104L13.9156 21.4833V17.2415L10.3099 15.1257V12.6484L12.4128 11.4097L15.9968 13.5357L19.6025 11.4097L21.7068 12.6484H21.6978ZM10.3086 8.41816L15.9981 5.06372L21.6978 8.41816L19.6038 9.65684L15.9981 7.53082L12.4026 9.65684L10.3086 8.41816Z" fill="white"/>
</g>
<defs>
<clipPath id="clip0_130_1412">
<rect width="32.0056" height="32.0056" fill="white"/>
</clipPath>
</defs>
</svg>
