<svg width="92" height="28" viewBox="0 0 92 28" fill="none" xmlns="http://www.w3.org/2000/svg">
<path d="M1.09243 9.11624H10.1934L7.18282 22.6785H10.4474L9.35495 27.5555H0.253999L3.26456 13.9932H0L1.09243 9.11624ZM4.97566 3.1714C4.97414 2.74697 5.054 2.32648 5.21055 1.93455C5.35845 1.55845 5.57658 1.21662 5.85231 0.928828C6.13008 0.641343 6.4582 0.411873 6.81894 0.252825C7.20037 0.0846705 7.611 6.96802e-05 8.02524 0.00429556C8.42542 0.00174002 8.82169 0.0863994 9.18853 0.252825C9.54498 0.413773 9.86912 0.643102 10.144 0.928828C10.4203 1.21783 10.6409 1.55922 10.7937 1.93455C10.9542 2.32538 11.0355 2.74642 11.0326 3.1714C11.0355 3.59638 10.9542 4.01742 10.7937 4.40825C10.6409 4.78358 10.4203 5.12497 10.144 5.41397C9.86912 5.69969 9.54498 5.92902 9.18853 6.08997C8.82169 6.2564 8.42542 6.34105 8.02524 6.3385C7.611 6.34275 7.20036 6.25815 6.81894 6.08997C6.4582 5.93092 6.13008 5.70145 5.85231 5.41397C5.57667 5.12642 5.35854 4.78488 5.21055 4.40908C5.05389 4.01688 4.97404 3.59611 4.97566 3.1714ZM12.6052 19.7947C12.5838 18.208 12.8839 16.6343 13.4858 15.1762C14.0404 13.8429 14.8462 12.6387 15.8554 11.6347C16.8525 10.6527 18.0238 9.88202 19.3039 9.3656C20.6199 8.82962 22.0215 8.5578 23.4347 8.5645C24.5117 8.55611 25.5793 8.77391 26.5735 9.20488C27.521 9.61307 28.3836 10.2084 29.1135 10.9578C29.8366 11.7066 30.412 12.5954 30.8071 13.574C31.2213 14.5962 31.4307 15.6956 31.4226 16.8049C31.4389 18.3428 31.1567 19.8684 30.5929 21.2901C30.0655 22.6146 29.2925 23.818 28.318 24.8316C27.3381 25.8391 26.1739 26.6318 24.8942 27.1628C23.5376 27.7284 22.0878 28.0126 20.6264 27.9996C19.5315 28.0113 18.4458 27.7903 17.4359 27.3501C16.4891 26.9365 15.6269 26.3384 14.8959 25.588C14.1757 24.8427 13.6037 23.9571 13.2127 22.9817C12.8055 21.9733 12.5988 20.8885 12.6052 19.7947ZM18.1788 19.1361C18.1733 19.6233 18.2484 20.1079 18.401 20.5685C18.5374 20.9808 18.7494 21.3618 19.0252 21.6902C19.2895 22.0022 19.6154 22.2511 19.9807 22.4201C20.3606 22.5943 20.7718 22.6824 21.187 22.6785C21.7841 22.6777 22.3738 22.5412 22.9148 22.2784C23.4771 22.0114 23.9866 21.6378 24.4173 21.1766C24.8633 20.6966 25.2199 20.1349 25.4691 19.5197C25.7343 18.8699 25.8681 18.1703 25.8625 17.4644C25.8734 16.9283 25.7891 16.3947 25.614 15.8903C25.468 15.4775 25.2441 15.0993 24.9555 14.7778C24.6879 14.485 24.3617 14.2571 24.0001 14.11C23.6292 13.9604 23.2345 13.8848 22.8368 13.8872C22.2073 13.8813 21.5847 14.0228 21.015 14.3014C20.4575 14.575 19.9573 14.9601 19.5428 15.4347C19.1185 15.9228 18.7824 16.4866 18.5506 17.099C18.3027 17.7473 18.1775 18.4393 18.182 19.137L18.1788 19.1361ZM34.6178 9.11209H43.6153L43.3414 10.6248V10.6074C43.8407 10.2133 44.3737 9.86774 44.9338 9.57519C45.4762 9.29546 46.0448 9.07448 46.6306 8.91576C47.2168 8.75496 47.8207 8.6742 48.4269 8.67551C49.319 8.65505 50.2052 8.83093 51.0274 9.19163C51.7368 9.50928 52.3512 10.0194 52.8062 10.6687C53.2728 11.3693 53.5637 12.18 53.6526 13.0273C53.7644 14.085 53.6918 15.1551 53.4384 16.1861L51.9845 22.6785H55.214L54.1399 27.5555H45.0565L47.2628 17.6416C47.362 17.238 47.3938 16.8196 47.3568 16.4048C47.3277 16.0687 47.2346 15.742 47.0829 15.4438C46.949 15.186 46.7474 14.9731 46.5016 14.8299C46.242 14.6838 45.9504 14.6102 45.6552 14.6162C44.8947 14.6706 44.1568 14.9083 43.4998 15.3104C43.0127 15.5759 42.5491 15.8855 42.1144 16.2358L39.5991 27.5555H33.5947L36.6052 13.9932H33.5262L34.6178 9.11209ZM58.9261 9.11209H68.0334L65.0196 22.6785H68.2842L67.1926 27.5555H58.0916L61.1061 13.9932H57.8416L58.9261 9.11209ZM62.8093 3.16726C62.8065 2.7431 62.885 2.32263 63.0402 1.9304C63.1881 1.55431 63.4062 1.21247 63.682 0.924685C63.9597 0.6372 64.2878 0.40773 64.6486 0.248682C65.03 0.0805047 65.4406 -0.00409709 65.8549 0.00015251C66.2551 -0.00240303 66.6513 0.0822564 67.0182 0.248682C67.3746 0.40963 67.6988 0.638959 67.9737 0.924685C68.25 1.21368 68.4705 1.55508 68.6234 1.9304C68.7838 2.32124 68.8651 2.74228 68.8623 3.16726C68.8651 3.59223 68.7838 4.01327 68.6234 4.40411C68.4705 4.77944 68.25 5.12083 67.9737 5.40982C67.6988 5.69555 67.3746 5.92488 67.0182 6.08583C66.6513 6.25225 66.2551 6.33691 65.8549 6.33436C65.4406 6.33861 65.03 6.254 64.6486 6.08583C64.2878 5.92678 63.9597 5.69731 63.682 5.40982C63.4062 5.12204 63.1881 4.7802 63.0402 4.40411C62.8869 4.01288 62.8098 3.59388 62.8133 3.1714L62.8093 3.16726ZM82.1434 26.1472C81.6651 26.6511 81.0954 27.0512 80.4674 27.3244C79.6396 27.6861 78.7477 27.862 77.8501 27.8405C76.9211 27.8395 75.9998 27.6647 75.1302 27.3244C74.2476 26.985 73.4412 26.4612 72.7606 25.7852C72.0447 25.064 71.4746 24.2013 71.0837 23.2477C70.638 22.1442 70.4194 20.9558 70.442 19.7591C70.4341 18.6783 70.5782 17.6021 70.8696 16.5647C71.1411 15.605 71.5381 14.6887 72.0496 13.8416C72.5442 13.026 73.1458 12.2862 73.8371 11.6438C74.5213 11.0072 75.28 10.4631 76.0952 10.0242C76.9148 9.58351 77.7819 9.2459 78.6782 9.01848C79.5824 8.78739 80.5101 8.67084 81.4411 8.67137C81.8911 8.66514 82.3406 8.7009 82.7844 8.77824C83.156 8.84948 83.5806 8.95635 84.0584 9.09884C84.6624 9.30872 85.2288 9.62142 85.7344 10.0242L85.9399 9.11292H91.7524L88.7267 22.6752H92L90.902 27.5555H81.8353L82.1434 26.1472ZM82.7764 20.9322L83.5289 19.953L84.384 16.1082C84.2388 15.8228 84.0608 15.5568 83.8537 15.3162C83.6208 15.0476 83.346 14.8219 83.0408 14.6485C82.7073 14.4553 82.3506 14.3088 81.9802 14.2128C81.6029 14.1124 81.2151 14.0615 80.8257 14.0612C80.219 14.0591 79.6188 14.1895 79.0636 14.4439C78.5181 14.6895 78.022 15.0397 77.6009 15.4761C77.1778 15.9196 76.8383 16.4417 76.6001 17.0154C76.3475 17.616 76.2192 18.2652 76.2234 18.9208C76.2135 19.4305 76.3007 19.9373 76.4798 20.4119C76.6362 20.8167 76.8756 21.1812 77.1813 21.4798C77.4776 21.7643 77.8269 21.9822 78.2076 22.1202C78.6091 22.2649 79.0313 22.3372 79.4561 22.3339C79.8455 22.3321 80.2331 22.2812 80.6107 22.1823C81.0077 22.08 81.3901 21.9243 81.7485 21.7192C82.1232 21.5065 82.4689 21.2427 82.7764 20.9347V20.9322Z" fill="white"/>
</svg>
