<svg width="15" height="14" viewBox="0 0 15 14" fill="none" xmlns="http://www.w3.org/2000/svg">
<path fill-rule="evenodd" clip-rule="evenodd" d="M3.14497 1.50432C3.14497 2.32442 2.52053 2.98811 1.54402 2.98811C0.605548 2.98811 -0.0188887 2.32442 0.000436204 1.50432C-0.0188887 0.644362 0.605533 0 1.56272 0C2.52051 0 3.12624 0.644362 3.14497 1.50432ZM0.0789467 13.7128V4.16028H3.04773V13.7122H0.0789467V13.7128Z" fill="white"/>
<path fill-rule="evenodd" clip-rule="evenodd" d="M5.42812 7.20918C5.42812 6.01769 5.38886 5.00192 5.34961 4.16189H7.92827L8.06535 5.47055H8.12394C8.51467 4.86484 9.49118 3.94751 11.0734 3.94751C13.0264 3.94751 14.4915 5.23684 14.4915 8.04861V13.7144H11.5227V8.42061C11.5227 7.18925 11.0933 6.34983 10.019 6.34983C9.19829 6.34983 8.71034 6.91629 8.51528 7.46282C8.43677 7.65849 8.39812 7.93145 8.39812 8.20562V13.7144H5.42932V7.20918H5.42812Z" fill="white"/>
</svg>
