<svg width="120" height="31" viewBox="0 0 120 31" fill="none" xmlns="http://www.w3.org/2000/svg">
<path fill-rule="evenodd" clip-rule="evenodd" d="M2.48486 26.6236H25.5618V2.91772H2.48486V26.6236ZM16.5678 22.6117H11.479V17.3843H6.39025V12.1568H11.479V6.92939H16.5678V12.1568H21.6565V17.3843H16.5678V22.6117Z" fill="#737D96"/>
<path d="M114.031 5.51247L111.708 9.09322L109.487 5.51247H105.802L106.155 6.03142C105.6 5.82384 104.742 5.51247 104.136 5.51247H98.8855V8.93753C98.6835 8.15911 98.2797 7.48448 97.6738 6.91363C96.7146 6.03142 95.604 5.46058 93.5846 5.46058H93.5342C91.5653 5.46058 90.5051 6.03142 89.5459 6.91363C88.9906 7.43258 88.5867 8.10722 88.3343 8.88564C88.2333 8.62616 88.0819 8.15911 88.0314 7.95153C87.7285 7.2769 87.2237 6.70605 86.6179 6.29089C86.0625 5.92763 85.5072 5.72005 84.8509 5.61626C84.8509 5.61626 84.3966 5.46058 83.4374 5.46058C81.3675 5.40868 80.4083 5.97952 79.4996 6.86174C78.5909 7.74395 78.1365 9.04132 78.0861 10.702V10.8576C77.7327 10.4425 77.3288 10.0792 76.824 9.87164C75.8143 9.45648 74.8046 9.14511 73.7444 8.98943C73.3406 8.93753 72.9872 8.83374 72.6338 8.62616C72.4823 8.52237 72.4319 8.36669 72.4319 8.21101C72.4319 8.00343 72.5328 7.79585 72.7348 7.64016C72.9872 7.48448 73.2901 7.38069 73.593 7.43258C73.9969 7.43258 74.3502 7.53637 74.7036 7.74395C75.0065 7.95153 75.158 8.3148 75.2085 8.67806H78.3385C78.288 7.74395 77.7832 6.86174 77.0259 6.29089C76.0667 5.72005 75.0065 5.46058 73.9464 5.46058C72.6338 5.46058 72.1794 5.66815 71.3212 5.97952C70.7659 6.1871 70.261 6.55037 69.9077 7.06932C69.6047 7.48448 69.4533 8.00343 69.4533 8.52237C69.4533 9.3008 69.8067 10.0273 70.362 10.4944C71.2707 11.1171 72.3309 11.5323 73.4415 11.688C74.0473 11.7918 74.6027 11.9474 75.1075 12.3107C75.3094 12.4664 75.4609 12.7259 75.4609 12.9853C75.4609 13.2967 75.3094 13.5562 75.057 13.7119C74.7541 13.9194 74.3502 14.0751 73.9464 14.0232C73.391 14.0751 72.8862 13.8157 72.4823 13.4005C72.2299 13.141 72.1289 12.7778 72.0785 12.4145H69.0999L66.3233 5.51247H62.9409L59.4575 14.4903L56.277 9.50838L60.3662 5.51247H56.075L52.4907 9.45648V5.51247H49.1587V12.3626C49.1083 12.674 48.9568 12.9334 48.7044 13.141C48.351 13.4524 47.8462 13.6081 47.3918 13.6081C46.887 13.66 46.4326 13.4524 46.0792 13.141C45.7258 12.7778 45.5744 12.3107 45.6249 11.8436V5.51247H42.3434V7.95153C42.2929 7.58827 42.2424 7.225 42.091 6.91363C41.889 6.13521 41.5357 5.46058 41.0308 4.88973C40.526 4.31889 39.8697 3.85183 39.1629 3.54046C38.2542 3.1253 37.2445 2.91772 36.2348 2.91772H30.1768V15.8915H35.73C36.7397 15.7877 37.7494 15.6839 38.759 15.3725C39.4658 15.2168 40.0716 14.8536 40.6269 14.3865C41.2327 13.8676 41.6871 13.2448 41.99 12.5183C42.1919 12.0512 42.2929 11.5323 42.3939 11.0133V11.7399C42.3939 12.3107 42.4949 12.8815 42.6968 13.4524C42.8482 13.8676 43.1007 14.2827 43.4036 14.646C43.7065 15.0092 44.1103 15.3206 44.5142 15.5282C44.9686 15.7358 45.5239 15.8915 46.0287 15.9433C46.6345 15.9952 47.1899 16.0471 47.6947 16.0471C48.3005 16.0471 48.8053 16.0471 49.4112 15.8915H52.3897V13.6081L54.1567 11.688L56.3779 15.8915H62.3855L62.8904 14.1789H66.6262L67.131 15.8915H70.5639L70.261 15.0092C70.9678 15.6839 72.1794 15.9952 73.9969 15.9952C74.8551 16.0471 75.7638 15.8915 76.5715 15.5801C77.2278 15.3206 77.7327 14.9054 78.1365 14.3346C78.389 14.0232 78.5404 13.6081 78.6414 13.1929C78.7424 13.4005 78.8433 13.6081 78.9948 13.8157C79.4491 14.5422 80.1054 15.1649 80.8627 15.5282C81.7714 15.8915 82.7306 16.0471 83.6898 15.9952C84.0937 15.9952 84.4975 15.9433 84.9519 15.8915C85.3558 15.8396 85.7091 15.7358 86.0625 15.5801C86.6683 15.3206 87.1732 14.9054 87.577 14.3865C87.8799 14.0232 88.1324 13.6081 88.2838 13.141C88.3343 13.0372 88.3848 12.7778 88.3848 12.5702C88.4858 12.9334 88.6877 13.3486 88.8896 13.66C89.344 14.4384 90.0003 15.0092 90.808 15.3725C91.7167 15.7358 92.0701 15.9433 93.1808 15.9433H93.9885C94.7963 15.9433 95.8059 15.7358 96.7651 15.2687C97.8253 14.6979 98.633 13.7119 98.9864 12.5183V15.8915H102.268V11.9993H104.085C105.398 11.9993 106.408 11.7399 107.013 11.169C107.67 10.5463 108.023 9.66406 107.973 8.78185C107.973 8.67806 107.973 8.52237 107.973 8.41859L110.194 11.5842V15.8396H113.475V11.5842L117.514 5.72005L116.858 5.51247H114.031ZM38.0018 11.6361C37.8503 12.0512 37.5474 12.3626 37.1435 12.6221C36.8406 12.7778 36.5377 12.7259 36.2348 12.7778H35.73H34.2155V6.03142H36.2348C36.7397 6.03142 38.3047 6.39468 38.3047 9.40459C38.3552 10.183 38.2542 10.9095 38.0018 11.6361ZM63.6476 11.9474L64.7583 8.47048L64.8088 8.31479L65.9699 11.9474H63.6476ZM88.2838 12.155H85.4062C85.3557 12.5183 85.1538 12.8815 84.9519 13.141C84.548 13.5043 84.0432 13.66 83.5383 13.66C82.983 13.7119 82.4277 13.4524 82.0238 13.0372C81.6704 12.6221 81.4685 11.8436 81.4685 10.7539C81.418 10.0792 81.5695 9.35269 81.9228 8.78185C82.3267 8.21101 82.9325 7.89964 83.6393 7.89964C83.9422 7.89964 84.2451 7.95153 84.548 8.10722C84.6995 8.15911 84.8509 8.2629 84.9519 8.36669C85.1538 8.52237 85.3053 8.78185 85.4062 9.04132H88.3848C88.2333 9.61217 88.1324 10.2349 88.1324 10.8058C88.1324 11.2209 88.1829 11.688 88.2838 12.155ZM95.3011 12.9853C94.8972 13.4524 94.2914 13.66 93.6351 13.66C93.0293 13.7119 92.4235 13.4524 92.0196 12.9853C91.5653 12.3626 91.3633 11.5842 91.4138 10.8058C91.3633 10.0273 91.5653 9.2489 92.0196 8.57427C92.4235 8.10722 93.0293 7.84774 93.5846 7.89964H93.6351C94.2409 7.89964 94.8467 8.10722 95.2506 8.57427C95.705 9.14511 95.9069 9.92354 95.8564 10.6501C95.8564 11.7399 95.6545 12.5702 95.3011 12.9853ZM104.338 9.71596C103.934 9.92354 103.48 10.0792 103.025 10.0273H102.217V7.74395H103.177C103.631 7.69206 104.035 7.84774 104.439 8.05532C104.641 8.2629 104.792 8.57427 104.792 8.88564C104.742 9.19701 104.59 9.50838 104.338 9.71596Z" fill="#737D96"/>
<path d="M30.4899 25.109C30.6922 25.4657 30.9955 25.7205 31.4 25.8733C31.855 26.0772 32.3101 26.1281 32.8157 26.1281C33.2202 26.1281 33.6247 26.0262 34.0291 25.8733C34.3831 25.7205 34.6359 25.4657 34.8381 25.1599C35.0403 24.9051 35.1415 24.5484 35.1415 24.2936C35.1415 23.9879 35.0403 23.6821 34.8887 23.4273C34.6864 23.1216 34.3831 22.9177 34.0797 22.7649C33.6247 22.612 33.1696 22.4591 32.7146 22.3572C32.2595 22.3062 31.855 22.1534 31.4506 21.8986C31.2989 21.7457 31.1978 21.5419 31.1978 21.338C31.1978 21.0832 31.3494 20.8284 31.5517 20.6756C31.855 20.4717 32.2595 20.3698 32.664 20.3698C33.0685 20.3189 33.4224 20.4717 33.7258 20.6756C33.9786 20.8794 34.1303 21.2361 34.1808 21.5419L34.9898 21.4909C34.9898 21.1342 34.8887 20.7775 34.6864 20.5736C34.4842 20.2679 34.1808 20.0641 33.8775 19.9112C33.473 19.7583 33.0685 19.6564 32.664 19.7073C32.2595 19.7073 31.9056 19.7583 31.5011 19.9112C31.1978 20.0131 30.8944 20.2679 30.6922 20.5227C30.5405 20.7775 30.4394 21.0832 30.4394 21.338C30.4394 21.5928 30.4899 21.8986 30.6416 22.1024C30.7933 22.3572 31.0461 22.561 31.2989 22.7139C31.7034 22.8668 32.1078 23.0197 32.5123 23.1216C32.8662 23.2235 33.2707 23.3254 33.6247 23.4273C33.8269 23.4783 34.0291 23.6312 34.1808 23.784C34.2819 23.9369 34.3325 24.0898 34.3325 24.2936C34.3325 24.4975 34.2819 24.7013 34.1303 24.8542C33.9786 25.058 33.8269 25.1599 33.5741 25.2618C33.3213 25.3638 33.0179 25.4147 32.7651 25.4147C32.4618 25.4147 32.1078 25.3638 31.8045 25.2109C31.5517 25.109 31.3494 24.9561 31.1978 24.7013C31.0461 24.4465 30.945 24.1917 30.945 23.9369H30.1866C30.136 24.3955 30.2877 24.7523 30.4899 25.109ZM37.8717 25.9243L38.7818 22.5101L38.984 23.2745L39.6919 25.8733H40.5008L41.9165 21.4909H41.1581L40.3997 24.0388L40.1469 24.8542L39.9447 24.0388L39.1863 21.5419H38.3773L37.6695 24.0898C37.5178 24.6503 37.4672 24.9561 37.4167 24.9561L37.1639 24.0898L36.456 21.5419H35.6471L37.0122 25.9243H37.8717ZM43.3828 20.6756V19.8093H42.6244V20.6756H43.3828ZM43.3828 25.9243V21.5419H42.6244V25.9243H43.3828ZM44.8996 25.6695C45.3041 25.9243 45.7591 26.0772 46.2647 26.0262C46.5681 26.0262 46.922 25.9753 47.2254 25.8224C47.4782 25.7205 47.731 25.5166 47.8826 25.3128C48.0343 25.109 48.0849 24.8542 48.0849 24.5994C48.0849 24.3446 48.0343 24.1408 47.8826 23.9369C47.731 23.7331 47.5793 23.6312 47.377 23.5292C47.0231 23.3764 46.6186 23.2745 46.2647 23.1725C45.9108 23.0706 45.658 23.0197 45.6074 22.9687C45.5063 22.9177 45.4052 22.8668 45.3041 22.7649C45.2535 22.7139 45.2029 22.612 45.2029 22.5101C45.2029 22.3572 45.3041 22.2043 45.4052 22.1024C45.6074 21.9495 45.9108 21.8986 46.1636 21.9495C46.4164 21.9495 46.6692 22.0005 46.8714 22.1534C47.0231 22.3062 47.1242 22.5101 47.1748 22.7139L47.9332 22.612C47.8826 22.3572 47.8321 22.1024 47.6804 21.8986C47.5287 21.6947 47.3265 21.5419 47.0737 21.4909C46.7703 21.338 46.4164 21.2871 46.113 21.2871C45.9108 21.2871 45.658 21.338 45.4557 21.389C45.3041 21.4399 45.1018 21.4909 44.9501 21.5928C44.7985 21.6947 44.6468 21.8476 44.5457 22.0005C44.4445 22.1534 44.394 22.3572 44.394 22.561C44.394 23.0197 44.6468 23.3764 45.0513 23.5802C45.4052 23.7331 45.8097 23.835 46.2141 23.9369C46.467 23.9879 46.7703 24.0898 47.0231 24.1917C47.1748 24.2936 47.2254 24.4465 47.2254 24.5994C47.2254 24.8032 47.1242 25.007 46.9726 25.109C46.7703 25.2618 46.467 25.3638 46.1636 25.3128C45.8602 25.3128 45.6074 25.2618 45.3546 25.058C45.1524 24.8542 45.0007 24.6503 45.0007 24.3446L44.2423 24.5484C44.394 25.058 44.5962 25.4147 44.8996 25.6695ZM49.3489 25.6695C49.7534 25.9243 50.2084 26.0772 50.714 26.0262C51.0174 26.0262 51.3713 25.9753 51.6747 25.8224C51.9275 25.7205 52.1803 25.5166 52.3319 25.3128C52.4836 25.109 52.5342 24.8542 52.5342 24.5994C52.5342 24.3446 52.4836 24.1408 52.3319 23.9369C52.1803 23.7331 52.0286 23.6312 51.8263 23.5292C51.4724 23.3764 51.0679 23.2745 50.714 23.1725C50.3601 23.0706 50.1073 23.0197 50.0567 22.9687C49.9556 22.9177 49.8545 22.8668 49.7534 22.7649C49.7028 22.663 49.6522 22.612 49.6522 22.5101C49.6522 22.3572 49.7534 22.2043 49.8545 22.1024C50.0567 21.9495 50.3601 21.8986 50.6129 21.9495C50.8657 21.9495 51.1185 22.0005 51.3207 22.1534C51.4724 22.3062 51.5735 22.5101 51.6241 22.7139L52.3825 22.612C52.3319 22.3572 52.2814 22.1024 52.1297 21.8986C51.978 21.6947 51.7758 21.5419 51.523 21.4909C51.2196 21.389 50.9162 21.338 50.5623 21.338C50.3601 21.338 50.1073 21.389 49.905 21.4399C49.7534 21.4909 49.5511 21.5419 49.3994 21.6438C49.2478 21.7457 49.0961 21.8986 48.995 22.0514C48.8938 22.2043 48.8433 22.4082 48.8433 22.612C48.8433 23.0706 49.0961 23.4273 49.5006 23.6312C49.8545 23.784 50.259 23.886 50.6634 23.9879C50.9162 24.0388 51.2196 24.1408 51.4724 24.2427C51.6241 24.3446 51.7252 24.4975 51.6747 24.6503C51.6747 24.8542 51.5735 25.058 51.4218 25.1599C51.2196 25.3128 50.9162 25.4147 50.6129 25.3638C50.3095 25.3638 50.0567 25.3128 49.8039 25.109C49.6017 24.9051 49.45 24.7013 49.45 24.3955L48.6916 24.4975C48.8433 25.058 49.0455 25.4147 49.3489 25.6695ZM58.4497 25.9243C58.8036 25.9243 59.107 25.8733 59.4609 25.8224C59.7137 25.7714 59.916 25.6695 60.1688 25.5166C60.371 25.3638 60.5227 25.1599 60.6238 24.9051C60.7249 24.6503 60.8261 24.3446 60.8261 24.1408C60.8261 23.784 60.7249 23.4783 60.5227 23.2235C60.3204 22.9687 60.0171 22.7649 59.6632 22.6629C59.916 22.561 60.1688 22.3572 60.3205 22.1024C60.4721 21.8986 60.5227 21.5928 60.5227 21.338C60.5227 21.0323 60.4216 20.7775 60.2699 20.5736C60.1182 20.3189 59.8654 20.115 59.6126 19.9621C59.2587 19.8093 58.8542 19.7583 58.4497 19.7583H56.124V25.8224L58.4497 25.9243ZM56.9329 20.6246H58.1969C58.5003 20.6246 58.8542 20.6246 59.1576 20.7265C59.3092 20.7775 59.4609 20.8794 59.562 21.0323C59.6632 21.1851 59.7137 21.389 59.7137 21.5928C59.7137 21.7967 59.6632 22.0005 59.562 22.1534C59.4609 22.3062 59.2587 22.4082 59.107 22.4591C58.8542 22.5101 58.6014 22.561 58.298 22.5101H56.9329C56.9329 22.4082 56.9329 20.6246 56.9329 20.6246ZM56.9329 23.1216H58.3992C58.7025 23.1216 59.0059 23.1216 59.3092 23.2235C59.5115 23.2745 59.6632 23.4273 59.8149 23.5802C60.0171 23.9369 60.0677 24.3446 59.8654 24.6503C59.8148 24.8032 59.6632 24.9051 59.562 25.007C59.4104 25.109 59.2587 25.1599 59.107 25.1599C58.9048 25.1599 58.7531 25.2109 58.5508 25.2109H56.9835V23.1216H56.9329V23.1216ZM65.0226 25.9243H65.8315C65.7304 25.7714 65.6798 25.5676 65.6293 25.3638C65.5787 24.9051 65.5787 24.4975 65.5787 24.0388V23.0706C65.5787 22.8158 65.5787 22.612 65.5282 22.3572C65.4776 22.1534 65.427 22.0005 65.2754 21.8476C65.1237 21.6947 64.972 21.5928 64.7192 21.4909C64.4158 21.389 64.1125 21.338 63.7585 21.338C63.4046 21.338 63.0507 21.389 62.7473 21.4909C62.4945 21.5928 62.2417 21.7457 62.0901 21.9495C61.9384 22.2043 61.7867 22.4591 61.7361 22.7139L62.4945 22.8158C62.5451 22.561 62.6968 22.3062 62.899 22.1534C63.1518 22.0005 63.4046 21.9495 63.708 21.9495C64.0113 21.9495 64.3147 22.0005 64.5675 22.2043C64.7192 22.4082 64.8203 22.612 64.7697 22.8668C64.7697 22.9177 64.7697 22.9687 64.7697 23.0706C64.3147 23.2235 63.8597 23.2745 63.4046 23.3254C63.1518 23.3254 62.9496 23.3764 62.6968 23.4273C62.4945 23.4783 62.2923 23.5802 62.1406 23.6821C61.9889 23.784 61.8373 23.9369 61.7361 24.1408C61.635 24.3446 61.5845 24.5484 61.5845 24.7523C61.5845 25.109 61.7361 25.4657 61.9889 25.6186C62.2923 25.8733 62.6968 26.0262 63.1518 25.9753C63.4552 25.9753 63.708 25.9243 64.0113 25.8224C64.3147 25.7205 64.5675 25.5166 64.8203 25.3128C64.8709 25.5676 64.9214 25.7714 65.0226 25.9243ZM64.8203 23.9879C64.8203 24.2427 64.7698 24.4975 64.7192 24.7523C64.6181 24.9561 64.4158 25.1599 64.2136 25.2618C63.9608 25.4147 63.708 25.4657 63.4046 25.4657C63.1518 25.4657 62.899 25.4147 62.7473 25.2618C62.5957 25.1599 62.4945 24.9561 62.4945 24.7523C62.4945 24.5994 62.5451 24.4975 62.5957 24.3955C62.6462 24.2936 62.7979 24.1917 62.899 24.1408C63.1013 24.0388 63.3541 23.9879 63.5563 23.9879C63.9608 23.9369 64.4158 23.835 64.8203 23.6821V23.9879ZM67.6517 25.9243V23.5292C67.6011 23.1216 67.7528 22.7139 68.0056 22.4082C68.2584 22.2043 68.5618 22.1024 68.8651 22.1024C69.0674 22.1024 69.2191 22.1534 69.4213 22.2553C69.573 22.3572 69.6741 22.4591 69.7246 22.612C69.7752 22.8668 69.8258 23.0706 69.8258 23.3254V25.9753H70.5842V23.2745C70.5842 23.0197 70.5842 22.7649 70.5336 22.5101C70.4831 22.3062 70.4325 22.1024 70.2808 21.9495C70.1291 21.7967 69.9775 21.6438 69.7752 21.5419C69.5224 21.4399 69.2696 21.389 69.0168 21.389C68.4606 21.389 67.9045 21.6438 67.6011 22.1534V21.4909H66.8933V25.8733L67.6517 25.9243ZM72.556 25.9243V24.1917L73.1122 23.6821L74.5784 25.9753H75.5391L73.6178 23.2235L75.3368 21.5928H74.3256L72.5055 23.3764V19.9112H71.7471V25.9753L72.556 25.9243ZM77.0053 20.6756V19.8093H76.2469V20.6756H77.0053ZM77.0053 25.9243V21.5419H76.2469V25.9243H77.0053ZM79.0277 25.9243V23.5292C78.9772 23.1216 79.1289 22.7139 79.3817 22.4082C79.6345 22.2043 79.9378 22.1024 80.2412 22.1024C80.4434 22.1024 80.5951 22.1534 80.7973 22.2553C80.949 22.3572 81.0501 22.4591 81.1007 22.612C81.1513 22.8158 81.2018 23.0706 81.2018 23.3254V25.9753H81.9602V23.2745C81.9602 23.0197 81.9602 22.7649 81.9097 22.5101C81.8591 22.3062 81.8085 22.1024 81.6569 21.9495C81.5052 21.7967 81.3535 21.6438 81.1513 21.5419C80.8985 21.4399 80.6457 21.389 80.3929 21.389C79.8367 21.389 79.2805 21.6438 78.9266 22.1534V21.4909H78.2188V25.8733L79.0277 25.9243ZM83.5276 27.3511C83.9321 27.6059 84.3871 27.7588 84.8422 27.7079C85.2466 27.7079 85.6511 27.6569 86.005 27.4531C86.3084 27.3002 86.5612 27.0454 86.7129 26.7396C86.8646 26.281 86.9657 25.7714 86.9151 25.2618V21.4909H86.2073V22.0514C85.9039 21.6438 85.3983 21.389 84.8927 21.389C84.1343 21.389 83.4265 21.8476 83.1737 22.5101C83.022 22.8668 82.9209 23.2745 82.9209 23.6821C82.9209 24.2427 83.0726 24.8032 83.4265 25.2618C83.7804 25.7205 84.286 25.9753 84.8927 25.9243C85.3983 25.9243 85.8534 25.7205 86.1567 25.3128C86.1567 25.6695 86.1567 25.9753 86.1062 26.2301C86.0556 26.4848 85.9039 26.6887 85.7017 26.8416C85.4489 26.9944 85.1961 27.0964 84.8927 27.0454C84.6399 27.0454 84.3366 26.9944 84.1343 26.8416C83.9826 26.7396 83.8815 26.5358 83.8815 26.332L83.1231 26.2301C83.022 26.6887 83.1737 27.0964 83.5276 27.3511ZM84.0332 22.4591C84.2354 22.2043 84.5894 22.0514 84.8927 22.0514C85.2466 22.0514 85.55 22.2043 85.8028 22.4591C86.0556 22.8158 86.2073 23.2235 86.1567 23.6821C86.2073 24.1408 86.0556 24.5484 85.8028 24.9051C85.3983 25.4147 84.6399 25.4657 84.1849 25.058C84.1343 25.007 84.0838 24.9561 84.0332 24.9051C83.7804 24.5484 83.6287 24.0898 83.6793 23.6312C83.6793 23.2235 83.7804 22.8158 84.0332 22.4591ZM95.5104 23.5802V24.7013C95.2576 24.9051 95.0048 25.058 94.752 25.1599C94.398 25.3128 94.0441 25.3638 93.6902 25.3638C93.2857 25.3638 92.8812 25.2618 92.5273 25.109C92.1734 24.9051 91.87 24.6503 91.7183 24.2936C91.5161 23.835 91.415 23.4273 91.415 22.9177C91.415 22.5101 91.5161 22.1024 91.6678 21.6947C91.7689 21.4909 91.9206 21.2361 92.0723 21.0832C92.2745 20.8794 92.4768 20.7265 92.7296 20.6246C93.0329 20.5227 93.3868 20.4208 93.6902 20.4717C93.9936 20.4717 94.2969 20.5227 94.5497 20.6246C94.8025 20.7265 95.0048 20.8794 95.1564 21.0832C95.3081 21.2871 95.4598 21.5419 95.5104 21.8476L96.2688 21.6438C96.1676 21.2871 96.016 20.9304 95.8137 20.6756C95.6115 20.4208 95.3081 20.166 94.9542 20.0641C94.5497 19.9112 94.1452 19.8093 93.7408 19.8602C93.1846 19.8602 92.5779 19.9621 92.0723 20.2679C91.5667 20.5227 91.2127 20.9304 90.9599 21.389C90.7071 21.8986 90.5555 22.4591 90.5555 23.0706C90.5555 23.6312 90.6566 24.1917 90.9599 24.7013C91.2127 25.2109 91.6172 25.5676 92.0723 25.8224C92.5779 26.0772 93.1846 26.2301 93.7408 26.2301C94.1958 26.2301 94.6508 26.1281 95.0553 25.9753C95.5104 25.8224 95.9148 25.5676 96.3193 25.2618V23.0197H93.6902V23.7331L95.5104 23.5802ZM98.2912 25.9243V23.6312C98.2912 23.3254 98.3417 23.0197 98.4429 22.7649C98.4934 22.612 98.5945 22.4591 98.7462 22.3572C98.8979 22.2553 99.0496 22.2043 99.2013 22.2043C99.4035 22.2043 99.6057 22.2553 99.7574 22.3572L100.01 21.6438C99.7574 21.4909 99.5046 21.389 99.2013 21.389C99.0496 21.389 98.8473 21.4399 98.6957 21.5419C98.4934 21.6947 98.3417 21.9495 98.1901 22.2043V21.4909H97.4822V25.8733L98.2912 25.9243ZM100.819 25.4147C101.224 25.8224 101.78 26.0262 102.336 26.0262C102.74 26.0262 103.094 25.9243 103.448 25.7714C103.752 25.5676 104.055 25.3128 104.207 25.007C104.409 24.5994 104.51 24.1408 104.46 23.6821C104.51 23.0706 104.308 22.5101 103.853 22.0514C103.448 21.6438 102.892 21.389 102.336 21.4399C101.83 21.4399 101.325 21.5928 100.92 21.9495C100.415 22.4591 100.162 23.0706 100.212 23.784C100.162 24.3446 100.364 25.007 100.819 25.4147ZM101.375 22.4591C101.83 21.9495 102.639 21.8986 103.145 22.3572C103.196 22.4082 103.246 22.4082 103.246 22.4591C103.499 22.8158 103.651 23.2235 103.651 23.6821C103.701 24.1408 103.549 24.5994 103.246 24.9561C102.993 25.2618 102.69 25.4147 102.285 25.4147C101.932 25.4147 101.578 25.2618 101.325 24.9561C100.87 24.2427 100.87 23.2745 101.375 22.4591ZM109.061 25.9243V21.5419H108.302V23.886C108.302 24.1917 108.252 24.4975 108.15 24.7523C108.049 24.9561 107.898 25.109 107.695 25.2109C107.493 25.3128 107.291 25.4147 107.038 25.3638C106.836 25.3638 106.634 25.3128 106.482 25.2109C106.33 25.109 106.229 24.9051 106.179 24.7523C106.128 24.4975 106.128 24.1917 106.128 23.9879V21.5419H105.42V24.2427C105.42 24.4975 105.42 24.7523 105.471 24.9561C105.521 25.1599 105.572 25.3638 105.724 25.5166C105.875 25.6695 106.027 25.8224 106.229 25.9243C106.482 26.0262 106.735 26.0772 106.988 26.0772C107.544 26.0772 108.1 25.8224 108.403 25.3128V25.9753H109.061V25.9243ZM111.133 27.6569V25.5166C111.285 25.6695 111.437 25.8224 111.639 25.9243C111.841 26.0262 112.094 26.0772 112.347 26.0772C112.701 26.0772 113.055 25.9753 113.358 25.7714C113.661 25.5676 113.914 25.2618 114.066 24.9561C114.218 24.5484 114.319 24.1917 114.319 23.7331C114.319 23.3254 114.268 22.9687 114.117 22.561C113.965 22.2043 113.763 21.8986 113.459 21.7457C113.156 21.5928 112.802 21.4399 112.448 21.4399C112.195 21.4399 111.942 21.4909 111.69 21.5928C111.487 21.7457 111.285 21.8986 111.133 22.1024V21.4909H110.426V27.6059H111.133V27.6569ZM111.437 22.4591C111.639 22.1534 111.942 22.0005 112.296 22.0005C112.65 22.0005 112.954 22.1534 113.156 22.4082C113.409 22.7649 113.56 23.2235 113.51 23.6821C113.56 24.1408 113.409 24.5994 113.156 24.9561C112.954 25.2109 112.6 25.4147 112.296 25.4147C111.942 25.4147 111.639 25.2618 111.437 25.007C111.184 24.6503 111.032 24.2427 111.083 23.7331C111.032 23.3254 111.184 22.8158 111.437 22.4591Z" fill="#737D96"/>
</svg>
