<svg width="100" height="31" viewBox="0 0 100 31" fill="none" xmlns="http://www.w3.org/2000/svg">
<path d="M59.3735 7.55202L59.3439 7.22743C59.2824 5.59764 58.6034 5.24174 55.6707 5.24174C51.8458 5.24174 51.0135 5.59535 51.0135 7.27096C51.0135 8.64567 51.4786 9.16195 52.899 9.30019C53.2351 9.3231 53.6092 9.36892 54.0371 9.36892C54.4415 9.39259 55.1821 9.43842 56.2891 9.48424C60.3591 9.64615 61.5656 9.88444 62.5277 10.7222C63.2993 11.3981 63.6044 12.1901 63.6044 13.6809C63.6044 15.8026 63.2606 16.8015 62.3372 17.4545C61.039 18.3618 59.5579 18.6001 55.4575 18.6001C51.4103 18.6001 50.0817 18.4618 48.8829 17.8547C47.6461 17.2238 46.9966 16.0637 46.9966 14.3347C46.9966 14.1957 47.0269 13.9345 47.0269 13.5885H50.7919V13.9345C50.7919 15.6101 51.4103 16.1943 53.289 16.2173H55.11L55.6669 16.2402C59.1261 16.2402 59.7142 15.8866 59.7142 13.9345C59.7142 12.3979 59.218 12.0443 56.8127 11.9488L54.6517 11.8335C50.452 11.6486 49.6811 11.5333 48.6347 10.8574C47.5505 10.1808 47.0922 9.15889 47.0922 7.50619C47.0922 5.56938 47.5884 4.43219 48.6954 3.84794C50.0855 3.12546 51.5363 2.91772 55.3619 2.91772C58.79 2.91772 60.2408 3.10255 61.3486 3.6868C62.5474 4.31687 63.1043 5.36165 63.1043 6.99144V7.55278H59.3735V7.55202Z" fill="#737D96"/>
<path d="M73.1447 2.91772H69.2578V18.6001H73.1447V2.91772Z" fill="#737D96"/>
<path d="M96.7596 10.4398L96.7894 10.8945L96.8192 13.3861V13.5979C96.8192 16.2381 96.3619 17.2799 94.8781 18.0873C93.6036 18.8005 92.1793 18.9648 88.1242 18.9648C84.0013 18.9648 82.6069 18.753 81.2422 17.8522C79.6981 16.8104 79.1514 15.5015 79.1514 12.6495V12.3202C79.1812 11.5135 79.1812 10.9187 79.1812 10.5885C79.211 7.75987 79.2713 7.29037 79.6013 6.26339C79.9394 5.29409 80.5917 4.47921 81.4449 3.96028C82.9592 3.08201 84.084 2.91772 88.0862 2.91772C92.659 2.91772 93.544 3.01193 94.8408 3.67764C95.6274 4.08563 96.2047 4.75134 96.4445 5.50347C96.6844 6.24003 96.7149 6.42846 96.7425 7.80737H92.8967L92.8669 7.49592C92.7179 5.69423 92.1697 5.45131 88.0467 5.45131C85.8352 5.45131 84.7693 5.59223 84.1637 5.99633C83.3771 6.52111 83.1372 7.21095 83.1372 9.15435L83.1067 10.745L83.1372 12.7897C83.167 14.6622 83.3465 15.3287 84.0743 15.8068C84.741 16.2529 85.8277 16.4016 88.2568 16.4016C92.3537 16.4016 92.957 16.0178 92.957 13.2444V12.6993H87.8367V10.4398H96.7596Z" fill="#737D96"/>
<path fill-rule="evenodd" clip-rule="evenodd" d="M2.82666 12.7649C4.07492 13.5088 4.73952 14.5191 7.34742 14.5191C9.95533 14.5191 11.5919 12.7649 14.6862 12.7649C17.8095 12.7649 19.5211 14.5191 22.6518 14.5191C25.7461 14.5191 26.9639 12.7649 29.9527 12.7649C32.9794 12.7649 34.6086 14.5191 37.2915 14.5191C39.9744 14.5191 40.8707 13.4183 42.4026 12.7649V16.8807C40.8707 17.5439 39.967 18.6002 37.2915 18.6002C34.6161 18.6002 32.9794 16.8347 29.9527 16.8347C26.9639 16.8347 25.7461 18.6002 22.6533 18.6002C19.5226 18.6002 17.8184 16.8384 14.6877 16.8384C11.589 16.8347 9.95533 18.6002 7.34742 18.6002C4.73952 18.6002 4.08012 17.6284 2.82666 16.8845V12.7649Z" fill="#737D96"/>
<path fill-rule="evenodd" clip-rule="evenodd" d="M2.82666 9.48218V11.7736C4.07492 12.5295 4.73952 13.4939 7.34742 13.4939C9.95533 13.4939 11.5919 11.7269 14.6862 11.7269C17.8095 11.7269 19.5211 13.4939 22.6518 13.4939C25.7461 13.4939 26.9639 11.7269 29.9527 11.7269C32.9794 11.7269 34.6086 13.4939 37.2915 13.4939C39.9744 13.4939 40.8707 12.4444 42.4026 11.7736V9.48218C40.8707 10.153 39.967 11.2454 37.2915 11.2454C34.6161 11.2454 32.9794 9.48218 29.9527 9.48218C26.9639 9.48218 25.7461 11.2454 22.6518 11.2454C19.5211 11.2454 17.8169 9.48218 14.6862 9.48218C11.5919 9.48218 9.95607 11.2454 7.34742 11.2454C4.73878 11.2454 4.08012 10.235 2.82666 9.48218Z" fill="#737D96"/>
<path fill-rule="evenodd" clip-rule="evenodd" d="M2.82666 6.92944V8.36809C4.07492 9.15356 4.73952 10.2118 7.34742 10.2118C9.95533 10.2118 11.5919 8.31797 14.6862 8.31797C17.8095 8.31797 19.5211 10.2118 22.6518 10.2118C25.7461 10.2118 26.9639 8.31797 29.9527 8.31797C32.9794 8.31797 34.6086 10.2118 37.2915 10.2118C39.9744 10.2118 40.8707 9.08701 42.4026 8.36809V6.92944C40.8707 7.64836 39.967 8.81916 37.2915 8.81916C34.6161 8.81916 32.9794 6.92944 29.9527 6.92944C26.9639 6.92944 25.7461 8.81916 22.6518 8.81916C19.5211 8.81916 17.8169 6.92944 14.6862 6.92944C11.5919 6.92944 9.95607 8.81916 7.34742 8.81916C4.73878 8.81916 4.08012 7.73627 2.82666 6.92944" fill="#737D96"/>
<path d="M43.2942 17.3534C43.4309 17.35 43.5668 17.377 43.6938 17.4326C43.8208 17.4882 43.9363 17.5714 44.0333 17.6771C44.127 17.7731 44.2016 17.8894 44.2524 18.0186C44.3032 18.1478 44.329 18.2871 44.3284 18.4277C44.3277 18.5684 44.3006 18.7074 44.2486 18.836C44.1966 18.9646 44.1209 19.0801 44.0263 19.175C43.8258 19.3752 43.5653 19.4877 43.2942 19.491C43.0211 19.4914 42.7586 19.3754 42.5621 19.1674C42.4677 19.0722 42.3927 18.9562 42.3419 18.8271C42.291 18.698 42.2655 18.5586 42.267 18.418C42.2682 18.2731 42.2969 18.13 42.3513 17.998C42.4057 17.8659 42.4847 17.7477 42.5831 17.651C42.6772 17.5513 42.7887 17.4733 42.9109 17.4217C43.033 17.37 43.1633 17.3458 43.2942 17.3504M43.2872 17.1417C43.0779 17.1378 42.8711 17.1925 42.6864 17.3005C42.5017 17.4085 42.3451 17.5664 42.2313 17.7592C42.115 17.9574 42.0517 18.1876 42.0488 18.4234C42.0481 18.5898 42.0788 18.7545 42.139 18.9072C42.1992 19.0599 42.2875 19.1973 42.3985 19.3108C42.636 19.5576 42.9509 19.6949 43.2781 19.6943C43.6028 19.6934 43.9159 19.5616 44.1577 19.3238C44.2714 19.21 44.3625 19.0717 44.4252 18.9176C44.4879 18.7634 44.521 18.5967 44.5223 18.4279C44.5236 18.2591 44.4931 18.0918 44.4328 17.9365C44.3725 17.7811 44.2836 17.6411 44.1717 17.5252C44.0548 17.3996 43.916 17.301 43.7638 17.2351C43.6115 17.1693 43.4487 17.1375 43.2851 17.1417M42.7781 17.6786V19.0991H43.1089V18.52H43.2711L43.5382 19.0991H43.9109L43.6067 18.4725C43.6902 18.4599 43.7667 18.4147 43.8222 18.3453C43.8776 18.2758 43.9084 18.1867 43.9088 18.0943C43.9088 17.8244 43.7123 17.6848 43.318 17.6848L42.7781 17.6786ZM43.1089 17.9026H43.2571C43.4606 17.9026 43.5592 17.9647 43.5592 18.1112C43.5592 18.2577 43.4676 18.3122 43.2795 18.3122H43.1173V17.9026H43.1089Z" fill="#737D96"/>
<path d="M3.1816 25.9538H3.8319C3.8461 26.3341 3.9604 26.6191 4.18687 26.8018C4.41334 26.9844 4.75127 27.0789 5.20138 27.0789C5.58759 27.0789 5.88765 27.0075 6.10158 26.8648C6.19982 26.8053 6.28124 26.7168 6.33677 26.6091C6.3923 26.5013 6.41976 26.3786 6.41609 26.2546C6.42042 26.1711 6.40723 26.0875 6.37754 26.0106C6.34785 25.9337 6.30248 25.8655 6.24499 25.8113C6.13069 25.7082 5.93759 25.6208 5.66639 25.5751L4.58018 25.361C4.14428 25.2736 3.82267 25.1311 3.62247 24.9248C3.42227 24.7185 3.32287 24.4343 3.32287 24.0776C3.32287 23.6099 3.47977 23.2454 3.80137 22.9919C4.12298 22.7383 4.57308 22.6116 5.16588 22.6116C5.72318 22.6116 6.15199 22.7462 6.45229 23.0052C6.7526 23.2643 6.9024 23.6469 6.90949 24.1461H6.28972C6.26842 23.8375 6.16122 23.6076 5.97521 23.465C5.78921 23.3225 5.49671 23.243 5.11831 23.243C4.73992 23.243 4.46091 23.3068 4.26639 23.4414C4.17573 23.4983 4.10062 23.5813 4.049 23.6817C3.99739 23.782 3.97119 23.896 3.97318 24.0115C3.96933 24.0909 3.9822 24.1703 4.01079 24.2432C4.03938 24.3162 4.08289 24.3808 4.13789 24.4319C4.25219 24.5264 4.45239 24.6138 4.74489 24.6775L5.7097 24.8909C6.21659 25.0019 6.5673 25.1523 6.7668 25.3507C6.96629 25.5491 7.0671 25.8341 7.0671 26.2066C7.0671 26.69 6.90287 27.0624 6.5744 27.3238C6.2457 27.5931 5.7814 27.7175 5.17369 27.7175C4.52338 27.7175 4.03068 27.5671 3.69488 27.2734C3.35908 26.9797 3.18799 26.5364 3.18018 25.9507" fill="#737D96"/>
<path d="M15.8982 22.9766V25.8753C15.8982 26.4799 15.7333 26.9323 15.4028 27.2496C15.0723 27.567 14.5912 27.7177 13.9516 27.7177C13.3119 27.7177 12.8308 27.5595 12.5074 27.2496C12.1841 26.9398 12.0142 26.4799 12.0142 25.8753V22.9766H12.6316V25.5962C12.6316 26.1018 12.7394 26.4799 12.955 26.7215C13.1706 26.9631 13.5011 27.0838 13.9544 27.0838C14.4077 27.0838 14.7446 26.9631 14.9602 26.7215C15.1758 26.4799 15.2836 26.1018 15.2836 25.5962V22.9766H15.9011" fill="#737D96"/>
<path d="M20.4977 25.9533H21.2052C21.2214 26.3335 21.3459 26.6185 21.5918 26.8011C21.8377 26.9838 22.2065 27.0782 22.6967 27.0782C23.1168 27.0782 23.4437 27.0069 23.6772 26.8641C23.7841 26.8047 23.8726 26.7161 23.933 26.6084C23.9933 26.5007 24.0231 26.378 24.0189 26.254C24.0236 26.1705 24.0093 26.087 23.9769 26.0101C23.9446 25.9332 23.8952 25.865 23.8326 25.8108C23.7081 25.7077 23.4978 25.6203 23.2024 25.5747L22.0271 25.3605C21.5524 25.2732 21.2021 25.1307 20.9848 24.9244C20.7676 24.7182 20.6578 24.434 20.6578 24.0774C20.6578 23.6098 20.8287 23.2453 21.1789 22.9918C21.5292 22.7383 22.0194 22.6116 22.665 22.6116C23.272 22.6116 23.739 22.7462 24.0661 23.0052C24.3932 23.2642 24.5563 23.6468 24.564 24.1459H23.8944C23.8712 23.8373 23.7545 23.6074 23.5527 23.4649C23.3509 23.3224 23.0308 23.2429 22.6186 23.2429C22.2065 23.2429 21.9026 23.3067 21.6908 23.4413C21.5914 23.4974 21.5091 23.5802 21.4529 23.6807C21.3967 23.7813 21.3688 23.8956 21.3722 24.0112C21.3688 24.0906 21.3836 24.1697 21.4154 24.2423C21.4472 24.3148 21.4951 24.3788 21.5555 24.4293C21.68 24.5237 21.898 24.6111 22.2173 24.6749L23.2565 24.8913C23.8094 25.0023 24.1906 25.1527 24.4086 25.3511C24.6267 25.5495 24.7349 25.8344 24.7349 26.2068C24.7349 26.6901 24.556 27.0625 24.1983 27.3238C23.8403 27.5931 23.3269 27.7175 22.6728 27.7175C21.9653 27.7175 21.4279 27.5671 21.0622 27.2735C20.6964 26.9798 20.5024 26.5366 20.4946 25.9509" fill="#737D96"/>
<path d="M33.0405 27.4265C32.8744 27.5249 32.6945 27.594 32.5078 27.6312C32.2736 27.6764 32.036 27.6976 31.798 27.6947C31.0369 27.6947 30.4381 27.4657 29.9943 27.0076C29.5505 26.5496 29.3286 25.9347 29.3286 25.1527C29.3286 24.3708 29.549 23.7559 29.9943 23.2978C30.4395 22.8398 31.0442 22.6116 31.8054 22.6116C32.5666 22.6116 33.1661 22.8406 33.6099 23.2978C34.0536 23.7551 34.2755 24.3794 34.2755 25.1527C34.2782 25.5286 34.2129 25.9014 34.083 26.2508C33.9664 26.5703 33.7755 26.8529 33.5283 27.072L34.1418 27.5927L33.7796 28.0822L33.0405 27.4265ZM32.5078 26.9559L32.0346 26.5418L32.3821 26.0712L33.0478 26.6469C33.236 26.4842 33.3814 26.272 33.4695 26.0312C33.5699 25.7544 33.6198 25.4597 33.6165 25.1629C33.6165 24.5637 33.4541 24.0978 33.136 23.7661C32.8178 23.4343 32.3741 23.261 31.8046 23.261C31.2352 23.261 30.7922 23.4265 30.4741 23.7661C30.1559 24.1057 29.9935 24.5716 29.9935 25.1629C29.9935 25.7543 30.1559 26.2367 30.4741 26.5684C30.7922 26.9002 31.2507 27.0657 31.8421 27.0657C31.9681 27.0666 32.094 27.0588 32.219 27.0422C32.3173 27.0223 32.4136 26.9931 32.507 26.9551" fill="#737D96"/>
<path d="M43.1089 22.9766V25.8753C43.1089 26.4799 42.9286 26.9323 42.5648 27.2496C42.201 27.567 41.681 27.7177 40.9845 27.7177C40.288 27.7177 39.7649 27.5595 39.4128 27.2496C39.0607 26.9398 38.8687 26.4799 38.8687 25.8753V22.9766H39.5418V25.5962C39.5418 26.1018 39.6592 26.4799 39.8939 26.7215C40.1287 26.9631 40.4886 27.0838 40.9822 27.0838C41.4758 27.0838 41.8427 26.9631 42.0774 26.7215C42.3122 26.4799 42.4296 26.1093 42.4296 25.6037V22.9841H43.1089V22.9766Z" fill="#737D96"/>
<path d="M48.0562 27.353V22.9766H51.5469V23.5424H48.6735V24.8314H51.367V25.4043H48.6735V26.7651H51.5897V27.353H48.0562Z" fill="#737D96"/>
<path d="M56.1831 27.353V22.9766H56.8518V24.7459H59.7539V22.9766H60.4234V27.353H59.7539V25.3189H56.8518V27.353H56.1831Z" fill="#737D96"/>
<path d="M64.6636 27.353L66.8604 22.9766H67.55L69.6106 27.353H68.9292L68.3382 26.1068H65.9743L65.3532 27.353H64.6636ZM66.2446 25.5338H68.0627L67.1766 23.6641L66.2446 25.5338Z" fill="#737D96"/>
<path d="M74.2046 27.353V22.9766H75.0509L77.8373 26.7153V22.9766H78.4449V27.353H77.5985L74.8122 23.6143V27.353H74.2046Z" fill="#737D96"/>
<path d="M83.3921 27.353V22.9766H84.3097L87.3275 26.7153V22.9766H87.9857V27.353H87.0689L84.0503 23.6143V27.353H83.3921Z" fill="#737D96"/>
<path d="M92.2261 27.353L94.4229 22.9766H95.1125L97.1731 27.353H96.491L95.9 26.1068H93.5368L92.9225 27.353H92.2261ZM93.8071 25.5338H95.6252L94.7466 23.6641L93.8071 25.5338Z" fill="#737D96"/>
</svg>
