<svg width="98" height="33" viewBox="0 0 98 33" fill="none" xmlns="http://www.w3.org/2000/svg">
<path d="M52.3931 16.5148L39.9546 3.88232V29.1176L52.3931 16.5148Z" fill="#737D96"/>
<path d="M27.7046 16.6941L39.9546 3.88232H15.4546L27.7046 16.6941Z" fill="#737D96"/>
<path d="M3.01562 16.5148L15.4541 29.1176V3.88232L3.01562 16.5148Z" fill="#737D96"/>
<path d="M27.7046 16.6941L15.4546 29.1176H39.9546L27.7046 16.6941Z" fill="#737D96"/>
<path d="M63.3232 17.2655H58.8001V21.7411H56.5386V11.2588H58.8001V15.5577H63.3232V11.2588H65.5847V21.7411H63.3232V17.2655Z" fill="#737D96"/>
<path d="M71.1245 22.1292C68.9228 22.1292 67.1214 21.1833 67.0928 18.5898H69.2945C69.3231 19.7493 69.9522 20.451 71.1531 20.451C72.0396 20.451 73.069 19.9629 73.069 18.8949C73.069 18.0406 72.3827 17.7965 71.2389 17.4304L70.4955 17.2168C68.8942 16.7286 67.2929 16.0574 67.2929 14.1046C67.2929 11.6942 69.4089 10.8704 71.3247 10.8704C73.2977 10.8704 75.0134 11.6026 75.0419 14.0131H72.8402C72.7544 13.0367 72.2111 12.457 71.1817 12.457C70.3525 12.457 69.5519 12.9146 69.5519 13.891C69.5519 14.6843 70.2381 14.9284 71.6678 15.4166L72.5257 15.6912C74.2699 16.2709 75.3851 16.9117 75.3851 18.7424C75.3565 21.1833 73.1261 22.1292 71.1245 22.1292Z" fill="#737D96"/>
<path d="M76.5156 11.2694H80.149C80.8229 11.2399 81.5262 11.2694 82.2001 11.3874C83.4601 11.6824 84.427 12.5083 84.427 13.9242C84.427 15.2811 83.5773 15.9596 82.3466 16.2841C83.7531 16.5495 84.8079 17.2575 84.8079 18.8209C84.8079 21.2102 82.4638 21.7411 80.6471 21.7411H76.5449L76.5156 11.2694ZM80.149 15.6351C81.1452 15.6351 82.1708 15.4286 82.1708 14.2192C82.1708 13.1278 81.2332 12.8328 80.2955 12.8328H78.7132V15.6351H80.149V15.6351ZM80.3541 20.1778C81.409 20.1778 82.4345 19.9418 82.4345 18.6439C82.4345 17.346 81.5555 17.11 80.4713 17.11H78.6839V20.1778H80.3541Z" fill="#737D96"/>
<path d="M90.7366 22.1292C87.4129 22.1292 85.939 19.9079 85.939 16.5911C85.939 13.2743 87.5863 10.8704 90.8522 10.8704C92.9042 10.8704 94.8984 11.8441 94.9562 14.2784H92.6441C92.5285 13.183 91.8349 12.6353 90.8522 12.6353C88.8291 12.6353 88.2222 14.9175 88.2222 16.6519C88.2222 18.3864 88.8291 20.3947 90.7655 20.3947C91.7771 20.3947 92.5285 19.8166 92.673 18.7211H94.9851C94.7539 21.2163 92.8753 22.1292 90.7366 22.1292Z" fill="#737D96"/>
</svg>
