<svg width="180" height="46" viewBox="0 0 180 46" fill="none" xmlns="http://www.w3.org/2000/svg">
<path d="M89.8529 14.5725H83.2739V31.4275H89.8529V14.5725Z" fill="#05062B"/>
<path d="M176.996 14.5725H167.205L160.072 19.5711L152.937 14.5725H143.146L155.175 23L143.146 31.4275H152.937L160.072 26.4289L167.205 31.4275H176.996L164.967 23L176.996 14.5725Z" fill="#05062B"/>
<path d="M101.872 14.5725H111.663L99.644 23L111.663 31.4275H101.872L89.8545 23L101.872 14.5725Z" fill="#05062B"/>
<path d="M143.146 31.4275L131.353 14.5725H123.458L111.663 31.4275H119.56L127.405 20.2137L135.251 31.4275H143.146Z" fill="#05062B"/>
<path d="M75.7737 23C78.0982 23 79.9842 21.1143 79.9842 18.7863C79.9842 16.4582 78.1 14.5725 75.7737 14.5725H51.5947V31.4275H75.7737C78.0982 31.4275 79.9842 29.5418 79.9842 27.2137C79.9842 24.8856 78.1 23 75.7737 23ZM73.3017 25.753C73.3017 26.6624 72.5649 27.3998 71.6561 27.3998H58.1754V24.1079H71.6561C72.5649 24.1079 73.3017 24.8453 73.3017 25.7547V25.753ZM73.3017 20.2488C73.3017 21.1582 72.5649 21.8956 71.6561 21.8956H58.1754V18.6037H71.6561C72.5649 18.6037 73.3017 19.3411 73.3017 20.2505V20.2488Z" fill="#05062B"/>
<path d="M28.3847 7.92699C20.1022 6.73837 10.0373 10.3236 4.59171 20.0591C0.825041 7.42837 22.8005 -3.61514 28.3847 7.92699Z" fill="url(#paint0_linear_103_1240)"/>
<path d="M37.3901 26.3077C36.5866 24.8487 33.4287 25.1454 32.4567 23.028C31.0094 20.3857 33.3637 18.9741 34.0304 16.6776C36.2357 8.51872 26.5637 2.42285 19.2515 3.08826C19.2515 3.08826 24.7444 2.72132 27.9743 7.94987C31.7585 17.9241 21.9146 19.0373 20.6058 28.7341C20.2953 32.7916 21.5725 35.4445 22.6059 36.2925C22.6059 36.2925 28.7164 38.582 33.4743 34.7071C38.2322 30.8305 37.3901 26.3095 37.3901 26.3095V26.3077Z" fill="url(#paint1_linear_103_1240)"/>
<path d="M5.8303 11.3857C5.8303 11.3857 0.930299 18.6018 4.03381 31.3396C7.13556 44.0773 25.2198 49.4411 33.3707 41.3209C41.5215 33.2006 37.3899 26.3076 37.3899 26.3076C34.1794 49.3006 -1.64865 29.1168 5.8303 11.3857Z" fill="url(#paint2_linear_103_1240)"/>
<defs>
<linearGradient id="paint0_linear_103_1240" x1="3.32855" y1="15.2027" x2="26.3039" y2="3.81324" gradientUnits="userSpaceOnUse">
<stop stop-color="#4845BA"/>
<stop offset="0.5" stop-color="#1BE0EA"/>
<stop offset="1" stop-color="#4845BA"/>
</linearGradient>
<linearGradient id="paint1_linear_103_1240" x1="19.4339" y1="3.36918" x2="31.7359" y2="32.7639" gradientUnits="userSpaceOnUse">
<stop stop-color="#1BE0EA"/>
<stop offset="1" stop-color="#4845BA"/>
</linearGradient>
<linearGradient id="paint2_linear_103_1240" x1="-8.97496" y1="20.0696" x2="37.92" y2="37.8647" gradientUnits="userSpaceOnUse">
<stop stop-color="#4845BA"/>
<stop offset="1" stop-color="#1BE0EA"/>
</linearGradient>
</defs>
</svg>
