<svg width="119" height="18" viewBox="0 0 119 18" fill="none" xmlns="http://www.w3.org/2000/svg">
<path d="M0 17.6984V0.299736H3.73967L9.22616 11.3355L14.6388 0.299736H18.3785V17.6984H15.2293V5.69332L10.4317 15.2129H7.9468L3.14509 5.69332V17.6984H0ZM24.1848 17.6984V0.299736H27.3381V17.6984H24.1848ZM33.1404 17.6984V0.299736H36.88L42.3665 11.3355L47.7792 0.299736H51.5189V17.6984H48.3697V5.69332L43.5721 15.2129H41.0872L36.2896 5.69332V17.6984H33.1404ZM65.395 17.9967C63.8174 18.034 62.2591 17.6404 60.8844 16.8575C59.6052 16.104 58.5577 15.007 57.8583 13.6884C57.1041 12.2448 56.7259 10.6311 56.7593 8.99906C56.7254 7.36883 57.1021 5.75663 57.8542 4.31385C58.5536 2.99527 59.6011 1.89832 60.8803 1.14481C62.255 0.36189 63.8133 -0.0316833 65.3909 0.00561536H73.1532C74.6651 -0.00576629 76.153 0.387271 77.4659 1.14481C78.7488 1.8936 79.7974 2.99174 80.4921 4.31385C81.2377 5.75875 81.6114 7.36996 81.5787 8.99906C81.6126 10.6278 81.2403 12.239 80.4962 13.6843C79.8007 15.0068 78.751 16.105 77.4669 16.8533C76.1493 17.5926 74.6685 17.9844 73.1614 17.9925C73.3172 17.9925 65.5754 17.9967 65.395 17.9967ZM65.395 15.1383H73.186C73.8837 15.1496 74.5758 15.0092 75.2151 14.7267C75.8545 14.4443 76.4263 14.0262 76.8918 13.501C77.9255 12.2412 78.4486 10.6327 78.3557 8.99906C78.4478 7.3665 77.9248 5.75922 76.8918 4.50027C76.41 3.9805 75.8271 3.56673 75.1798 3.28483C74.5324 3.00293 73.8345 2.85895 73.1296 2.86189C73.2926 2.86189 65.5601 2.86189 65.396 2.86189C64.6613 2.82998 63.9285 2.96021 63.2487 3.24352C62.5689 3.52682 61.9583 3.9564 61.4595 4.50234C60.4193 5.75708 59.8911 7.36496 59.9823 8.99906C59.8903 10.6337 60.4181 12.2424 61.4585 13.4979C61.9573 14.0438 62.5678 14.4734 63.2477 14.7567C63.9275 15.04 64.6603 15.1702 65.395 15.1383ZM92.6993 17.9967C91.5503 18.0196 90.4097 17.7951 89.3533 17.338C88.431 16.9365 87.6383 16.2821 87.0652 15.449C86.4873 14.5605 86.1872 13.517 86.2041 12.4539H89.5255C89.5414 13.2262 89.8548 13.9618 90.3989 14.5045C90.7031 14.7908 91.0616 15.0119 91.4528 15.1543C91.8439 15.2967 92.2596 15.3575 92.6747 15.333C93.389 15.3718 94.0943 15.1564 94.6675 14.7241C94.9073 14.5301 95.0989 14.2823 95.2272 14.0004C95.3555 13.7185 95.417 13.4103 95.4067 13.1002C95.424 12.7914 95.3747 12.4826 95.2621 12.195C95.1495 11.9075 94.9764 11.6481 94.7547 11.4349C94.2477 10.9961 93.6575 10.6662 93.0202 10.4655L90.7075 9.67016C89.5699 9.32153 88.529 8.70864 87.668 7.88058C87.3117 7.49 87.0358 7.03178 86.8563 6.53256C86.6768 6.03334 86.5972 5.50305 86.6223 4.97252C86.5809 4.0348 86.8351 3.10799 87.3481 2.32544C87.8634 1.57506 88.5725 0.981861 89.3984 0.610426C90.343 0.188766 91.3674 -0.0190737 92.4 0.00147313C93.4457 -0.019936 94.4833 0.192242 95.4384 0.622852C96.2723 1.0002 96.9873 1.60214 97.5051 2.36272C98.0192 3.15314 98.2968 4.07651 98.3047 5.02223H94.9382C94.9215 4.4084 94.6702 3.82494 94.237 3.39421C93.9891 3.15073 93.6937 2.96203 93.3697 2.84008C93.0456 2.71812 92.7001 2.6656 92.3549 2.68584C91.7353 2.64947 91.1224 2.83098 90.6203 3.19951C90.3871 3.38118 90.2013 3.61766 90.0791 3.88839C89.9569 4.15913 89.902 4.45592 89.9192 4.75296C89.9067 5.0086 89.9486 5.26396 90.042 5.50189C90.1353 5.73982 90.278 5.95482 90.4604 6.13243C90.8917 6.51379 91.3934 6.80522 91.9366 6.98993C92.5599 7.22191 93.2734 7.47047 94.0771 7.73559C94.885 8.01367 95.6671 8.36299 96.4144 8.77951C97.0991 9.15801 97.6819 9.69983 98.112 10.3578C98.5663 11.1168 98.7888 11.9944 98.7517 12.8806C98.7566 13.7735 98.5182 14.6506 98.0628 15.4159C97.5709 16.221 96.8632 16.8688 96.0217 17.2841C94.9869 17.7876 93.8473 18.0319 92.6993 17.9967ZM102.86 17.6984L109.159 0.299736H112.702L119 17.6984H115.654L114.276 13.6718H107.56L106.157 17.6984H102.86ZM108.421 11.1863H113.415L110.906 3.95345L108.421 11.1863Z" fill="white"/>
</svg>
