<svg width="106" height="30" viewBox="0 0 106 30" fill="none" xmlns="http://www.w3.org/2000/svg">
<path d="M36.4928 14.8153C36.479 13.6944 36.7018 12.5831 37.1467 11.5541C37.5698 10.586 38.1958 9.72005 38.9824 9.01472C39.8085 8.28481 40.7711 7.72592 41.8145 7.37041C42.9958 6.96967 44.2369 6.77347 45.4842 6.79026C46.7288 6.77578 47.9668 6.97312 49.1453 7.37384C50.1922 7.72802 51.1581 8.28698 51.9868 9.01816C52.7734 9.72349 53.3994 10.5895 53.8225 11.5576C54.2674 12.5865 54.4903 13.6978 54.4764 14.8188C54.4895 15.9468 54.2667 17.0652 53.8225 18.1022C53.3999 19.0793 52.7741 19.9552 51.9868 20.6717C51.1595 21.4114 50.1937 21.9796 49.1453 22.3435C47.9689 22.754 46.73 22.9564 45.4842 22.9416C44.2367 22.9564 42.9963 22.7531 41.8188 22.3409C40.7736 21.9749 39.8111 21.4059 38.9867 20.6665C38.1981 19.951 37.5708 19.0756 37.1467 18.0988C36.7025 17.0618 36.4798 15.9434 36.4928 14.8153ZM39.681 14.8153C39.6694 15.569 39.8186 16.3166 40.1187 17.008C40.3999 17.6438 40.815 18.2114 41.3356 18.6721C41.8742 19.1426 42.4995 19.5032 43.1765 19.7337C43.9191 19.9873 44.6995 20.113 45.4842 20.1053C46.269 20.1127 47.0493 19.9868 47.7919 19.7328C48.4675 19.5033 49.0913 19.1428 49.6276 18.6721C50.1463 18.2096 50.561 17.6425 50.8445 17.008C51.148 16.3174 51.299 15.5695 51.2874 14.8153C51.2997 14.0643 51.1486 13.3197 50.8445 12.6329C50.5618 12.0076 50.1466 11.4513 49.6276 11.0023C49.0891 10.5442 48.4652 10.1974 47.7919 9.98192C47.0468 9.73997 46.2676 9.61971 45.4842 9.62576C44.701 9.61832 43.9218 9.73713 43.1765 9.97763C42.5019 10.1939 41.8765 10.5406 41.3356 10.998C40.8147 11.4452 40.3991 12.002 40.1187 12.6286C39.8174 13.3176 39.6682 14.0634 39.681 14.8153ZM57.6432 10.853H60.6203V12.5625C61.273 12.0756 61.9701 11.6512 62.7023 11.295C63.4009 10.9517 64.132 10.6788 64.8847 10.4805L65.7601 13.2062C64.717 13.2944 63.6958 13.5554 62.7384 13.9786C61.9016 14.3523 61.1733 14.9318 60.6212 15.6632V22.7202H57.6432V10.853ZM69.5405 9.23357C69.2687 9.23747 68.9982 9.1951 68.7406 9.10827C68.5181 9.03289 68.3117 8.91645 68.1322 8.76499C67.969 8.6266 67.8371 8.45519 67.7451 8.26208C67.6549 8.07198 67.6085 7.86404 67.6095 7.65362C67.6078 7.4398 67.6541 7.22833 67.7451 7.03485C67.8363 6.8427 67.9684 6.67282 68.1322 6.53709C68.3129 6.3888 68.5191 6.27453 68.7406 6.19982C68.9982 6.11299 69.2687 6.07062 69.5405 6.07452C69.8154 6.07018 70.089 6.11255 70.3498 6.19982C70.5713 6.27453 70.7775 6.3888 70.9582 6.53709C71.122 6.67282 71.2541 6.8427 71.3453 7.03485C71.4363 7.22833 71.4826 7.4398 71.4809 7.65362C71.4818 7.86404 71.4355 8.07198 71.3453 8.26208C71.2533 8.45519 71.1213 8.6266 70.9582 8.76499C70.7786 8.91645 70.5723 9.03289 70.3498 9.10827C70.089 9.19554 69.8154 9.23791 69.5405 9.23357ZM68.0549 10.853H71.032V22.7202H68.0549V10.853ZM74.1293 16.7866C74.1229 15.9606 74.2987 15.1434 74.6442 14.3931C74.9923 13.6448 75.4961 12.9794 76.122 12.4415C76.8064 11.8599 77.5947 11.4129 78.4452 11.1242C79.4309 10.79 80.4665 10.6269 81.5072 10.6419C82.548 10.6272 83.5836 10.7906 84.5693 11.125C85.4198 11.4138 86.2081 11.8607 86.8925 12.4424C87.5195 12.9805 88.0243 13.6465 88.3729 14.3957C88.7184 15.1459 88.8942 15.9632 88.8878 16.7892C88.8942 17.6152 88.7184 18.4324 88.3729 19.1827C88.0245 19.9308 87.5203 20.5959 86.8942 21.1334C86.2096 21.7145 85.4214 22.1608 84.571 22.449C83.5853 22.7835 82.5497 22.9469 81.509 22.9322C80.4682 22.9472 79.4326 22.784 78.4469 22.4499C77.5956 22.1609 76.8068 21.7133 76.122 21.1308C75.4959 20.5933 74.9918 19.9282 74.6433 19.1801C74.2972 18.43 74.1208 17.6127 74.1267 16.7866H74.1293ZM77.2574 16.7866C77.2554 17.2527 77.3531 17.7139 77.5441 18.1391C77.7388 18.57 78.0236 18.9542 78.3791 19.266C78.7718 19.6063 79.2259 19.8684 79.717 20.0383C80.2942 20.2379 80.9018 20.3349 81.5124 20.325C82.123 20.3349 82.7306 20.2379 83.3078 20.0383C83.7989 19.8684 84.253 19.6063 84.6457 19.266C84.9997 18.9538 85.2829 18.5696 85.4764 18.1391C85.6674 17.7139 85.7651 17.2527 85.7631 16.7866C85.7653 16.3177 85.6676 15.8537 85.4764 15.4255C85.2826 14.9929 84.9978 14.6071 84.6414 14.2944C84.2487 13.9541 83.7946 13.6919 83.3035 13.522C82.7263 13.3225 82.1187 13.2255 81.5081 13.2354C80.8975 13.2255 80.2899 13.3225 79.7127 13.522C79.2217 13.6919 78.7675 13.9541 78.3748 14.2944C78.0191 14.6072 77.7348 14.993 77.5415 15.4255C77.3503 15.8537 77.2526 16.3177 77.2549 16.7866H77.2574ZM91.9009 10.853H94.878V11.8588C95.5882 11.4436 96.3512 11.126 97.1463 10.9148C97.8381 10.7375 98.5493 10.6464 99.2635 10.6436C100.118 10.6355 100.968 10.7697 101.778 11.0409C102.521 11.2892 103.203 11.692 103.779 12.2227C104.359 12.7694 104.81 13.4372 105.102 14.1785C105.433 15.0413 105.594 15.9603 105.576 16.8844V22.7202H102.609V17.3702C102.618 16.777 102.525 16.1867 102.332 15.6255C102.165 15.1402 101.894 14.6974 101.538 14.3279C101.183 13.9701 100.754 13.6955 100.28 13.5237C99.75 13.333 99.1895 13.2393 98.6258 13.2474C98.2932 13.2484 97.9615 13.2821 97.6355 13.3478C97.2961 13.4151 96.9631 13.511 96.6399 13.6344C96.3117 13.7591 95.9956 13.914 95.6959 14.097C95.3998 14.277 95.1234 14.4875 94.8712 14.7252V22.7202H91.8975L91.9009 10.853Z" fill="white"/>
<path d="M14.8924 29.7848C11.947 29.7848 9.06767 28.9114 6.61863 27.275C4.16959 25.6386 2.26079 23.3127 1.13362 20.5915C0.00645256 17.8702 -0.288466 14.8759 0.28616 11.987C0.860786 9.0982 2.27915 6.44463 4.36189 4.36189C6.44463 2.27915 9.0982 0.860786 11.987 0.28616C14.8759 -0.288466 17.8702 0.00645256 20.5915 1.13362C23.3127 2.26079 25.6386 4.16959 27.275 6.61863C28.9114 9.06767 29.7848 11.947 29.7848 14.8924C29.7848 18.8421 28.2158 22.6301 25.4229 25.4229C22.6301 28.2158 18.8421 29.7848 14.8924 29.7848ZM14.8924 26.806C18.0522 26.806 21.0826 25.5508 23.3169 23.3164C25.5512 21.0821 26.8064 18.0518 26.8064 14.892C26.8064 11.7322 25.5512 8.70181 23.3169 6.4675C21.0826 4.23319 18.0522 2.97797 14.8924 2.97797C11.7326 2.97797 8.70224 4.23319 6.46793 6.4675C4.23362 8.70181 2.9784 11.7322 2.9784 14.892C2.9784 18.0518 4.23362 21.0821 6.46793 23.3164C8.70224 25.5508 11.7326 26.806 14.8924 26.806ZM17.8712 11.9136H13.4034C13.0084 11.9136 12.6296 11.7567 12.3502 11.4773C12.0709 11.198 11.914 10.8192 11.914 10.4242C11.914 10.0292 12.0709 9.65031 12.3502 9.371C12.6296 9.09168 13.0084 8.93476 13.4034 8.93476H19.3602C19.7551 8.93476 20.1338 9.09163 20.4131 9.37087C20.6923 9.65011 20.8492 10.0288 20.8492 10.4237V16.3805C20.8492 16.7755 20.6923 17.1544 20.413 17.4337C20.1336 17.713 19.7548 17.8699 19.3598 17.8699C18.9648 17.8699 18.5859 17.713 18.3066 17.4337C18.0273 17.1544 17.8704 16.7755 17.8704 16.3805L17.8712 11.9136ZM13.4034 16.3814H8.93562C8.5406 16.3814 8.16176 16.2245 7.88244 15.9451C7.60312 15.6658 7.4462 15.287 7.4462 14.892C7.4462 14.497 7.60312 14.1181 7.88244 13.8388C8.16176 13.5595 8.5406 13.4026 8.93562 13.4026H14.8924C15.2873 13.4026 15.666 13.5594 15.9453 13.8387C16.2245 14.1179 16.3814 14.4966 16.3814 14.8915V20.8483C16.3814 21.2433 16.2245 21.6222 15.9451 21.9015C15.6658 22.1808 15.287 22.3377 14.892 22.3377C14.497 22.3377 14.1181 22.1808 13.8388 21.9015C13.5595 21.6222 13.4026 21.2433 13.4026 20.8483L13.4034 16.3814Z" fill="white"/>
</svg>
