<svg width="64" height="64" viewBox="0 0 64 64" fill="none" xmlns="http://www.w3.org/2000/svg">
<g clip-path="url(#clip0_123_1360)">
<path d="M5.90925 16.57C5.90925 15.5853 5.90925 14.5997 5.90925 13.615C5.90925 12.8928 6.2029 12.413 6.8854 12.0884C12.2612 9.49938 17.6293 6.89498 22.9898 4.27523C25.796 2.91293 28.6021 1.56065 31.3953 0.178314C31.8823 -0.0620912 32.2812 -0.0440622 32.7583 0.189332C38.5998 3.04415 44.4459 5.88995 50.2968 8.72674C52.6359 9.86365 54.9711 11.0076 57.3122 12.1325C57.8895 12.4089 58.2012 12.8267 58.1982 13.4557C58.1891 15.6594 58.2332 17.8632 58.132 20.0669C58.0438 21.9641 57.8524 23.8623 57.5858 25.7425C57.1327 28.9938 56.4257 32.2046 55.4712 35.3457C54.2886 39.2142 52.7432 42.9275 50.7267 46.4414C47.4636 52.127 43.2222 56.9361 37.8284 60.6814C36.2018 61.8103 34.449 62.7559 32.7643 63.8017C32.2632 64.1122 31.8292 64.0571 31.3191 63.7876C23.6015 59.7074 17.5949 53.8709 13.2995 46.2781C10.6757 41.6703 8.85573 36.747 7.64006 31.5943C6.88956 28.4661 6.3816 25.2846 6.12072 22.0783C5.9784 20.2492 5.89923 18.4161 5.79199 16.585L5.90925 16.57ZM17.2131 30.1819C17.2131 38.3958 23.8086 44.7736 31.5195 45.04C40.0312 45.3345 46.8903 38.4819 46.9114 30.2641C46.9314 22.1955 40.4692 15.382 32.0788 15.371C23.7665 15.3549 17.2341 22.0793 17.2131 30.1769V30.1819Z" fill="white" fill-opacity="0.2"/>
<path d="M17.2129 30.177C17.2339 22.0803 23.7663 15.352 32.0786 15.366C40.469 15.377 46.9312 22.1905 46.9111 30.2591C46.8901 38.473 40.031 45.3295 31.5193 45.0351C23.8104 44.7686 17.2109 38.3919 17.2129 30.177ZM29.5089 31.965C29.3566 31.8198 29.2363 31.7096 29.1201 31.5934C28.3504 30.8301 27.5947 30.0518 26.815 29.3035C25.8449 28.379 24.537 28.388 23.641 29.2975C22.7912 30.161 22.8252 31.5172 23.7412 32.4378C25.1163 33.8241 26.4976 35.2035 27.8853 36.5758C28.8575 37.5344 30.1774 37.5464 31.1415 36.5868C34.2523 33.4923 37.3558 30.3903 40.452 27.2811C41.361 26.3686 41.373 25.0143 40.5121 24.1398C39.6312 23.2443 38.2752 23.2573 37.3371 24.1909C34.865 26.6504 32.3976 29.1132 29.9348 31.5794C29.8005 31.7046 29.6642 31.8218 29.5089 31.965Z" fill="white"/>
<path d="M29.5092 31.9649C29.6645 31.8217 29.8008 31.7045 29.9271 31.5793C32.3945 29.1158 34.8619 26.6529 37.3294 24.1908C38.2674 23.2572 39.6234 23.2442 40.5043 24.1397C41.3652 25.0142 41.3532 26.3684 40.4442 27.281C37.3474 30.3896 34.2439 33.4915 31.1337 36.5867C30.1696 37.5463 28.8497 37.5343 27.8776 36.5757C26.4885 35.2047 25.1072 33.8254 23.7335 32.4377C22.8205 31.5171 22.7864 30.1609 23.6333 29.2974C24.5292 28.3879 25.8381 28.3789 26.8072 29.3034C27.592 30.0517 28.3476 30.83 29.1123 31.5933C29.2366 31.7095 29.3568 31.8196 29.5092 31.9649Z" fill="black"/>
<path d="M29.5092 31.9649C29.6645 31.8217 29.8008 31.7045 29.9271 31.5793C32.3945 29.1158 34.8619 26.6529 37.3294 24.1908C38.2674 23.2572 39.6234 23.2442 40.5043 24.1397C41.3652 25.0142 41.3532 26.3684 40.4442 27.281C37.3474 30.3896 34.2439 33.4915 31.1337 36.5867C30.1696 37.5463 28.8497 37.5343 27.8776 36.5757C26.4885 35.2047 25.1072 33.8254 23.7335 32.4377C22.8205 31.5171 22.7864 30.1609 23.6333 29.2974C24.5292 28.3879 25.8381 28.3789 26.8072 29.3034C27.592 30.0517 28.3476 30.83 29.1123 31.5933C29.2366 31.7095 29.3568 31.8196 29.5092 31.9649Z" fill="url(#paint0_linear_123_1360)"/>
</g>
<defs>
<linearGradient id="paint0_linear_123_1360" x1="26.1226" y1="25.9183" x2="30.3058" y2="36.3417" gradientUnits="userSpaceOnUse">
<stop stop-color="#1BE0EA"/>
<stop offset="1" stop-color="#4845BA"/>
</linearGradient>
<clipPath id="clip0_123_1360">
<rect width="64" height="64" fill="white"/>
</clipPath>
</defs>
</svg>
