<svg width="64" height="64" viewBox="0 0 64 64" fill="none" xmlns="http://www.w3.org/2000/svg">
<g clip-path="url(#clip0_123_1354)">
<path d="M44.8888 0H6.22217C2.90846 0 0.222168 2.68629 0.222168 6V58C0.222168 61.3137 2.90846 64 6.22217 64H44.8888C48.2025 64 50.8888 61.3137 50.8888 58V6C50.8888 2.68629 48.2025 0 44.8888 0Z" fill="white" fill-opacity="0.2"/>
<g filter="url(#filter0_b_123_1354)">
<path d="M51.26 56.4445C58.1733 56.4445 63.7777 50.8401 63.7777 43.9267C63.7777 37.0133 58.1733 31.4089 51.26 31.4089C44.3466 31.4089 38.7422 37.0133 38.7422 43.9267C38.7422 50.8401 44.3466 56.4445 51.26 56.4445Z" fill="white" fill-opacity="0.9"/>
</g>
<path d="M45.991 39.9799C46.0931 39.8857 46.1902 39.7863 46.2821 39.6822C47.0198 38.7346 47.9886 37.9924 49.0955 37.5266C50.3309 36.9931 51.6981 36.8429 53.0199 37.0955C55.3133 37.5399 56.9821 38.8266 58.0421 40.8955C58.4327 41.6801 58.6595 42.536 58.7088 43.4111C58.7877 44.3254 58.6803 45.2463 58.3931 46.1179C58.1059 46.9895 57.6448 47.7939 57.0377 48.4822C55.9916 49.7277 54.5279 50.55 52.9199 50.7955C52.4972 50.86 52.0696 50.8867 51.6421 50.8755C51.3813 50.8551 51.1353 50.7462 50.9449 50.5667C50.7545 50.3872 50.6312 50.148 50.5955 49.8888C50.5474 49.6178 50.597 49.3385 50.7353 49.1005C50.8736 48.8626 51.0918 48.6813 51.351 48.5888C51.5949 48.5232 51.8453 48.4852 52.0977 48.4755C53.0771 48.4075 54.0083 48.0245 54.7521 47.3837C55.4958 46.7428 56.0123 45.8785 56.2244 44.9199C56.3563 44.3069 56.3606 43.6732 56.237 43.0584C56.1135 42.4436 55.8647 41.8609 55.5061 41.3464C55.1476 40.8319 54.687 40.3967 54.153 40.068C53.6189 39.7392 53.023 39.5239 52.4021 39.4355C51.545 39.3148 50.6712 39.4416 49.8837 39.8011C49.0963 40.1606 48.428 40.7377 47.9577 41.4644C47.9136 41.5318 47.8833 41.6074 47.8688 41.6866C47.8244 41.8844 47.9155 41.9977 48.1221 42.0066C48.3161 42.0039 48.51 42.0158 48.7021 42.0422C48.9426 42.0941 49.1559 42.2316 49.3027 42.429C49.4494 42.6264 49.5195 42.8703 49.4999 43.1155C49.4863 43.3469 49.3955 43.567 49.242 43.7406C49.0885 43.9143 48.8812 44.0314 48.6533 44.0733C48.5381 44.0945 48.4214 44.1056 48.3044 44.1066H44.971C44.2133 44.1066 43.7688 43.6622 43.7666 42.9111C43.7666 41.78 43.7666 40.6489 43.7666 39.5177C43.7513 39.2638 43.8267 39.0127 43.9793 38.8092C44.1319 38.6057 44.3519 38.4631 44.5999 38.4066C44.7511 38.3738 44.9077 38.3749 45.0584 38.4097C45.2092 38.4445 45.3503 38.5122 45.4718 38.608C45.5933 38.7038 45.6921 38.8253 45.7611 38.9637C45.8301 39.1022 45.8677 39.2542 45.871 39.4089C45.871 39.5977 45.8821 39.7866 45.8888 39.9755L45.991 39.9799Z" fill="#05062A"/>
<path d="M45.991 39.9799C46.0931 39.8857 46.1902 39.7863 46.2821 39.6822C47.0198 38.7346 47.9886 37.9924 49.0955 37.5266C50.3309 36.9931 51.6981 36.8429 53.0199 37.0955C55.3133 37.5399 56.9821 38.8266 58.0421 40.8955C58.4327 41.6801 58.6595 42.536 58.7088 43.4111C58.7877 44.3254 58.6803 45.2463 58.3931 46.1179C58.1059 46.9895 57.6448 47.7939 57.0377 48.4822C55.9916 49.7277 54.5279 50.55 52.9199 50.7955C52.4972 50.86 52.0696 50.8867 51.6421 50.8755C51.3813 50.8551 51.1353 50.7462 50.9449 50.5667C50.7545 50.3872 50.6312 50.148 50.5955 49.8888C50.5474 49.6178 50.597 49.3385 50.7353 49.1005C50.8736 48.8626 51.0918 48.6813 51.351 48.5888C51.5949 48.5232 51.8453 48.4852 52.0977 48.4755C53.0771 48.4075 54.0083 48.0245 54.7521 47.3837C55.4958 46.7428 56.0123 45.8785 56.2244 44.9199C56.3563 44.3069 56.3606 43.6732 56.237 43.0584C56.1135 42.4436 55.8647 41.8609 55.5061 41.3464C55.1476 40.8319 54.687 40.3967 54.153 40.068C53.6189 39.7392 53.023 39.5239 52.4021 39.4355C51.545 39.3148 50.6712 39.4416 49.8837 39.8011C49.0963 40.1606 48.428 40.7377 47.9577 41.4644C47.9136 41.5318 47.8833 41.6074 47.8688 41.6866C47.8244 41.8844 47.9155 41.9977 48.1221 42.0066C48.3161 42.0039 48.51 42.0158 48.7021 42.0422C48.9426 42.0941 49.1559 42.2316 49.3027 42.429C49.4494 42.6264 49.5195 42.8703 49.4999 43.1155C49.4863 43.3469 49.3955 43.567 49.242 43.7406C49.0885 43.9143 48.8812 44.0314 48.6533 44.0733C48.5381 44.0945 48.4214 44.1056 48.3044 44.1066H44.971C44.2133 44.1066 43.7688 43.6622 43.7666 42.9111C43.7666 41.78 43.7666 40.6489 43.7666 39.5177C43.7513 39.2638 43.8267 39.0127 43.9793 38.8092C44.1319 38.6057 44.3519 38.4631 44.5999 38.4066C44.7511 38.3738 44.9077 38.3749 45.0584 38.4097C45.2092 38.4445 45.3503 38.5122 45.4718 38.608C45.5933 38.7038 45.6921 38.8253 45.7611 38.9637C45.8301 39.1022 45.8677 39.2542 45.871 39.4089C45.871 39.5977 45.8821 39.7866 45.8888 39.9755L45.991 39.9799Z" fill="url(#paint0_linear_123_1354)"/>
<path d="M29.1282 15.3043H12.7615C11.8606 15.3043 11.1304 16.0346 11.1304 16.9354C11.1304 17.8363 11.8606 18.5665 12.7615 18.5665H29.1281C30.029 18.5665 30.7593 17.8363 30.7593 16.9354C30.7593 16.0346 30.029 15.3043 29.1282 15.3043Z" fill="white"/>
<path d="M29.1282 44.5217H12.7615C11.8606 44.5217 11.1304 45.252 11.1304 46.1528C11.1304 47.0537 11.8606 47.784 12.7615 47.784H29.1281C30.029 47.784 30.7593 47.0537 30.7593 46.1528C30.7593 45.252 30.029 44.5217 29.1282 44.5217Z" fill="white"/>
<path d="M36.3149 23.7488H12.9104C12.0096 23.7488 11.2793 24.4791 11.2793 25.3799C11.2793 26.2807 12.0096 27.011 12.9104 27.011H36.3149C37.2157 27.011 37.946 26.2807 37.946 25.3799C37.946 24.4791 37.2157 23.7488 36.3149 23.7488Z" fill="white"/>
<path d="M24.4637 32.1932H12.9104C12.0096 32.1932 11.2793 32.9235 11.2793 33.8243C11.2793 34.7252 12.0096 35.4555 12.9104 35.4555H24.4637C25.3646 35.4555 26.0949 34.7252 26.0949 33.8243C26.0949 32.9235 25.3646 32.1932 24.4637 32.1932Z" fill="white"/>
</g>
<defs>
<filter id="filter0_b_123_1354" x="18.7422" y="11.4089" width="65.0356" height="65.0355" filterUnits="userSpaceOnUse" color-interpolation-filters="sRGB">
<feFlood flood-opacity="0" result="BackgroundImageFix"/>
<feGaussianBlur in="BackgroundImageFix" stdDeviation="10"/>
<feComposite in2="SourceAlpha" operator="in" result="effect1_backgroundBlur_123_1354"/>
<feBlend mode="normal" in="SourceGraphic" in2="effect1_backgroundBlur_123_1354" result="shape"/>
</filter>
<linearGradient id="paint0_linear_123_1354" x1="43.699" y1="35.6161" x2="52.1422" y2="54.7677" gradientUnits="userSpaceOnUse">
<stop stop-color="#4845BA"/>
<stop offset="1" stop-color="#1BE0EA"/>
</linearGradient>
<clipPath id="clip0_123_1354">
<rect width="64" height="64" fill="white"/>
</clipPath>
</defs>
</svg>
