<svg width="64" height="64" viewBox="0 0 64 64" fill="none" xmlns="http://www.w3.org/2000/svg">
<g clip-path="url(#clip0_122_1341)">
<path d="M38.5437 37.734C38.5214 37.9863 38.5059 38.1852 38.487 38.3842C38.3692 39.5722 38.7148 40.6069 39.7782 41.187C41.1082 41.908 42.4762 42.5565 43.8762 43.1297C47.0653 44.4466 50.2255 45.8147 52.9479 47.9841C53.7606 48.627 54.4962 49.3616 55.1402 50.1735C56.8881 52.4062 57.0603 54.9701 56.3914 57.6118C56.0903 58.7999 55.2247 59.6578 54.2346 60.3558C52.4567 61.6049 50.4366 62.2451 48.3454 62.7196C43.7895 63.7477 39.1448 63.9855 34.4934 63.9977C31.0132 64.0077 27.5297 63.9644 24.0483 63.811C20.3248 63.6454 16.6312 63.1664 13.1021 61.875C12.1275 61.5239 11.1956 61.0639 10.3242 60.5036C7.69735 58.7932 6.77507 56.3071 7.44844 53.2386C7.87402 51.306 9.0141 49.8756 10.4686 48.642C12.5799 46.8572 14.98 45.5302 17.4157 44.2822C19.3369 43.2953 21.3448 42.4751 23.305 41.5704C24.6017 40.9736 25.6007 40.1323 25.6618 38.562C25.6962 37.6929 25.414 36.9205 24.9217 36.2281C24.025 34.9578 23.0549 33.7353 22.2293 32.4217C19.4292 27.9763 18.2513 23.1174 18.9314 17.8851C19.4481 13.9109 21.2226 10.629 24.6884 8.43851C27.4808 6.67589 30.5865 6.23469 33.8156 6.54031C36.9913 6.84038 39.7493 8.06065 41.9105 10.4667C43.834 12.6083 44.7996 15.1778 45.1763 17.9907C45.7319 22.1327 44.9307 26.0547 43.2251 29.8289C43.0739 30.1623 42.885 30.3712 42.5195 30.4413C41.8472 30.5713 41.186 30.7469 40.5093 30.858C40.3182 30.8902 40.0949 30.7802 39.8982 30.7046C39.4859 30.5468 39.087 30.2368 38.6759 30.2212C37.2036 30.1645 35.7057 30.0445 34.259 30.2501C32.4244 30.5091 31.1599 32.3984 31.341 34.211C31.5366 36.1681 33.0344 37.6562 34.939 37.7262C35.9557 37.7662 36.9758 37.734 37.9936 37.7351L38.5437 37.734Z" fill="white" fill-opacity="0.2"/>
<path d="M9.91757 25.5825C9.91757 24.5645 9.91757 23.5454 9.91757 22.5274C9.90979 21.2037 10.4243 20.1657 11.5377 19.4233C11.7053 19.2979 11.8168 19.1114 11.8477 18.9043C12.4411 11.9439 15.6979 6.58153 21.6261 2.91848C25.8485 0.305669 30.4966 -0.535627 35.3936 0.325679C43.7796 1.80046 50.1289 8.02853 51.8157 16.3693C51.9768 17.165 52.0079 17.9863 52.149 18.7876C52.189 19.0255 52.3213 19.3188 52.5079 19.4478C53.5513 20.1724 54.0725 21.157 54.078 22.4118C54.088 24.56 54.098 26.7094 54.078 28.8577C54.0525 31.4427 51.5545 33.0164 49.1699 31.9584C48.8844 31.8317 48.6866 31.8172 48.4155 32.0006C45.9164 33.6943 43.0974 34.4456 40.1405 34.8101C39.848 34.8633 39.5786 35.0044 39.3682 35.2147C38.9371 35.6359 38.4649 35.9159 37.8526 35.917C36.9637 35.917 36.0747 35.9326 35.1858 35.917C34.6895 35.9188 34.2108 35.7329 33.8459 35.3965C33.4809 35.0601 33.2566 34.5982 33.2179 34.1033C33.1334 33.0286 33.8057 32.0806 34.8846 31.9817C35.9727 31.8978 37.0656 31.8978 38.1537 31.9817C38.5204 32.005 38.9138 32.2651 39.2138 32.5152C39.3239 32.6208 39.4569 32.6996 39.6024 32.7455C39.7479 32.7913 39.902 32.8031 40.0527 32.7797C42.5073 32.4874 44.8308 31.8239 46.9632 30.5258C47.3421 30.2947 47.3443 30.0668 47.3354 29.6367C47.2821 26.955 47.2587 24.2711 47.3354 21.5905C47.361 20.7014 48.0021 20.0157 48.7388 19.4789C48.8303 19.4044 48.9049 19.3113 48.9576 19.2057C49.0103 19.1001 49.0399 18.9845 49.0444 18.8665C48.5599 11.3448 42.6807 4.7689 35.2413 3.40526C26.2197 1.75155 17.7125 7.16722 15.4146 16.0503C15.1801 16.9594 15.0979 17.9085 14.9368 18.8376C14.8823 19.1521 14.9934 19.3355 15.2701 19.5145C16.2546 20.1613 16.7546 21.1037 16.7624 22.2762C16.778 24.5178 16.7946 26.7594 16.7624 28.9999C16.7302 30.9015 15.2434 32.2907 13.3433 32.2796C11.4432 32.2684 9.98312 30.857 9.93867 28.9666C9.91312 27.8374 9.93867 26.7072 9.93867 25.5769L9.91757 25.5825Z" fill="black"/>
<path d="M9.91757 25.5825C9.91757 24.5645 9.91757 23.5454 9.91757 22.5274C9.90979 21.2037 10.4243 20.1657 11.5377 19.4233C11.7053 19.2979 11.8168 19.1114 11.8477 18.9043C12.4411 11.9439 15.6979 6.58153 21.6261 2.91848C25.8485 0.305669 30.4966 -0.535627 35.3936 0.325679C43.7796 1.80046 50.1289 8.02853 51.8157 16.3693C51.9768 17.165 52.0079 17.9863 52.149 18.7876C52.189 19.0255 52.3213 19.3188 52.5079 19.4478C53.5513 20.1724 54.0725 21.157 54.078 22.4118C54.088 24.56 54.098 26.7094 54.078 28.8577C54.0525 31.4427 51.5545 33.0164 49.1699 31.9584C48.8844 31.8317 48.6866 31.8172 48.4155 32.0006C45.9164 33.6943 43.0974 34.4456 40.1405 34.8101C39.848 34.8633 39.5786 35.0044 39.3682 35.2147C38.9371 35.6359 38.4649 35.9159 37.8526 35.917C36.9637 35.917 36.0747 35.9326 35.1858 35.917C34.6895 35.9188 34.2108 35.7329 33.8459 35.3965C33.4809 35.0601 33.2566 34.5982 33.2179 34.1033C33.1334 33.0286 33.8057 32.0806 34.8846 31.9817C35.9727 31.8978 37.0656 31.8978 38.1537 31.9817C38.5204 32.005 38.9138 32.2651 39.2138 32.5152C39.3239 32.6208 39.4569 32.6996 39.6024 32.7455C39.7479 32.7913 39.902 32.8031 40.0527 32.7797C42.5073 32.4874 44.8308 31.8239 46.9632 30.5258C47.3421 30.2947 47.3443 30.0668 47.3354 29.6367C47.2821 26.955 47.2587 24.2711 47.3354 21.5905C47.361 20.7014 48.0021 20.0157 48.7388 19.4789C48.8303 19.4044 48.9049 19.3113 48.9576 19.2057C49.0103 19.1001 49.0399 18.9845 49.0444 18.8665C48.5599 11.3448 42.6807 4.7689 35.2413 3.40526C26.2197 1.75155 17.7125 7.16722 15.4146 16.0503C15.1801 16.9594 15.0979 17.9085 14.9368 18.8376C14.8823 19.1521 14.9934 19.3355 15.2701 19.5145C16.2546 20.1613 16.7546 21.1037 16.7624 22.2762C16.778 24.5178 16.7946 26.7594 16.7624 28.9999C16.7302 30.9015 15.2434 32.2907 13.3433 32.2796C11.4432 32.2684 9.98312 30.857 9.93867 28.9666C9.91312 27.8374 9.93867 26.7072 9.93867 25.5769L9.91757 25.5825Z" fill="url(#paint0_linear_122_1341)"/>
</g>
<defs>
<linearGradient id="paint0_linear_122_1341" x1="9" y1="16" x2="57.7564" y2="21.1845" gradientUnits="userSpaceOnUse">
<stop stop-color="#4845BA"/>
<stop offset="1" stop-color="#1BE0EA"/>
</linearGradient>
<clipPath id="clip0_122_1341">
<rect width="64" height="64" fill="white"/>
</clipPath>
</defs>
</svg>
