<svg width="24" height="24" viewBox="0 0 24 24" fill="none" xmlns="http://www.w3.org/2000/svg">
<path fill-rule="evenodd" clip-rule="evenodd" d="M19.6942 18.2791L14.8771 13.4371C15.7413 12.2099 16.1133 10.7027 15.9194 9.214C15.7254 7.72533 14.9796 6.36388 13.8298 5.39936C12.68 4.43484 11.2101 3.93763 9.71119 4.00627C8.21232 4.0749 6.7939 4.70432 5.73695 5.76988C4.67999 6.83544 4.06162 8.25937 4.00436 9.75954C3.94711 11.2597 4.45515 12.7267 5.42781 13.8698C6.40047 15.0129 7.76679 15.7488 9.25607 15.9316C10.7453 16.1144 12.2489 15.7308 13.4689 14.8568L18.286 19.6995C18.3787 19.7942 18.4893 19.8696 18.6113 19.9212C18.7334 19.9728 18.8645 19.9995 18.9969 20C19.1294 20.0004 19.2607 19.9745 19.3831 19.9238C19.5054 19.873 19.6165 19.7985 19.7099 19.7044C19.8032 19.6103 19.8769 19.4986 19.9267 19.3757C19.9765 19.2529 20.0014 19.1214 19.9999 18.9888C19.9985 18.8563 19.9707 18.7253 19.9182 18.6036C19.8657 18.4819 19.7896 18.3719 19.6942 18.2798V18.2791ZM10.0042 13.9682C9.20925 13.9725 8.43091 13.7407 7.76781 13.302C7.10472 12.8633 6.58671 12.2376 6.27946 11.504C5.97221 10.7704 5.88955 9.96208 6.04194 9.18145C6.19433 8.40082 6.57493 7.68306 7.13548 7.11909C7.69603 6.55512 8.41131 6.17034 9.19065 6.01355C9.97 5.85676 10.7783 5.93502 11.5132 6.23838C12.248 6.54173 12.8763 7.05654 13.3184 7.71756C13.7605 8.37858 13.9966 9.15602 13.9966 9.9514C13.9966 11.0129 13.5767 12.0312 12.8286 12.7839C12.0805 13.5366 11.0651 13.9623 10.0042 13.9682V13.9682Z" fill="#404040"/>
</svg>
