<svg width="98" height="37" viewBox="0 0 98 37" fill="none" xmlns="http://www.w3.org/2000/svg">
<path d="M23.3435 2.2184C23.5447 2.69164 23.6352 3.20454 23.6082 3.71805C23.5812 4.23155 23.4374 4.73212 23.1877 5.18165C22.6072 6.16971 21.6874 6.91309 20.5994 7.27334C19.0091 7.88324 17.2695 7.98914 15.6169 7.57668C13.9652 7.21222 12.4393 6.41728 11.1942 5.27256L11.6076 4.82221C12.3311 5.2611 13.1263 5.56869 13.9568 5.73078C14.9535 5.90948 15.9751 5.89592 16.9667 5.69082L16.8368 4.71587C16.6646 3.76762 16.7921 2.78931 17.2014 1.91684C17.5874 1.14007 18.258 0.541954 19.0736 0.246844C19.4805 0.0735641 19.9199 -0.0102739 20.362 0.00100412C20.8041 0.0122821 21.2386 0.118414 21.6362 0.312214C22.4331 0.699314 23.0462 1.38382 23.3435 2.2184Z" fill="white"/>
<path d="M6.12799 28.2938C5.01767 28.3082 3.91102 28.1634 2.8418 27.8638C1.91324 27.5945 1.01224 27.238 0.150873 26.799L0.188429 22.3542H0.563994L1.83153 24.5954C2.26872 25.4579 2.88681 26.2159 3.64363 26.8178C4.38262 27.3289 5.26774 27.5859 6.16555 27.5502C7.19145 27.599 8.20599 27.3176 9.06022 26.7474C9.40864 26.5098 9.69204 26.1887 9.88458 25.8135C10.0771 25.4382 10.1727 25.0208 10.1625 24.5991C10.1772 24.2258 10.1151 23.8535 9.98009 23.5051C9.84507 23.1568 9.64 22.8398 9.37757 22.5739C8.52898 21.8839 7.53312 21.3982 6.46694 21.1543L4.89426 20.6736C3.53033 20.317 2.29018 19.5935 1.30855 18.5817C0.437854 17.6376 -0.0309322 16.3915 0.00158537 15.1077C-0.00495007 14.3099 0.165954 13.5207 0.501928 12.7971C0.837903 12.0735 1.33054 11.4337 1.9442 10.9239C3.52392 9.68398 5.50632 9.07198 7.51007 9.20568C8.43466 9.20018 9.3565 9.30668 10.2555 9.52298C11.1198 9.73678 11.9543 10.0569 12.7398 10.476L12.5154 14.5133H12.1398L10.8329 12.197C10.4875 11.5297 10.011 10.939 9.43203 10.4601C8.81005 10.0809 8.08552 9.90468 7.35891 9.95588C6.51023 9.95648 5.67993 10.2031 4.96843 10.6657C4.61715 10.8696 4.32752 11.1647 4.13018 11.5197C3.93284 11.8747 3.83512 12.2765 3.84737 12.6825C3.834 13.0698 3.91354 13.4548 4.07933 13.8052C4.24512 14.1555 4.49235 14.4611 4.80037 14.6964C5.6582 15.3067 6.60951 15.7735 7.61711 16.0785L9.29776 16.5639C10.7762 16.9199 12.1159 17.7064 13.1473 18.8239C13.9266 19.8041 14.3364 21.0272 14.305 22.2791C14.3283 23.1272 14.1449 23.9683 13.7707 24.7297C13.3964 25.4912 12.8425 26.1501 12.1568 26.6497C10.3824 27.8453 8.26363 28.423 6.12799 28.2938ZM15.9152 27.7379V27.3624L16.4382 27.2131C16.851 27.1215 17.2162 26.8825 17.4654 26.5408C17.669 26.1765 17.7666 25.7625 17.747 25.3456V13.6542C17.7752 13.2426 17.6769 12.8321 17.4654 12.4778C17.2036 12.174 16.8367 11.9805 16.4382 11.936L15.9152 11.8243V11.4487L22.7505 9.24138L23.1261 9.61688L23.0143 14.9218V25.3813C22.9952 25.7979 23.0931 26.2116 23.297 26.5756C23.5355 26.9111 23.8867 27.1497 24.2866 27.2478L24.6621 27.3596V27.7351L15.9152 27.7379ZM34.4428 21.2707C32.9402 21.3155 31.4467 21.0229 30.0721 20.4144V21.6819C30.0435 22.0187 30.1492 22.353 30.3663 22.612C30.5834 22.871 30.8942 23.0335 31.2308 23.064L38.2538 24.371C39.3359 24.5705 40.3984 24.8642 41.4292 25.2489C42.3044 25.5617 43.0877 26.0881 43.708 26.7802C44.3166 27.547 44.6223 28.5107 44.5671 29.4881C44.5638 30.7177 44.1423 31.9097 43.3718 32.8682C42.438 34.001 41.2195 34.8649 39.8415 35.3713C37.9842 36.0584 36.012 36.382 34.0325 36.3243C32.4281 36.3786 30.8255 36.1705 29.2882 35.7084C28.323 35.4335 27.4594 34.8823 26.8038 34.1225C26.34 33.5374 26.0837 32.8148 26.0752 32.0682C26.1008 31.094 26.4198 30.1502 26.9906 29.3604C27.5754 28.4756 28.3468 27.7295 29.2506 27.1746C28.592 26.9558 28.0091 26.5543 27.5699 26.0169C27.233 25.5773 27.0493 25.0394 27.047 24.4855C27.046 23.9913 27.1818 23.5065 27.4394 23.0847C27.7222 22.6183 28.0405 22.1745 28.3915 21.7571L29.6243 20.1881C28.7515 19.7067 28.0327 18.9883 27.5509 18.1157C27.0691 17.2431 26.8439 16.2521 26.9014 15.257C26.8752 14.431 27.0345 13.6097 27.3674 12.8533C27.7003 12.097 28.1985 11.4249 28.8253 10.8863C30.1078 9.76588 31.9944 9.20568 34.485 9.20568C35.6157 9.18618 36.7428 9.33718 37.8285 9.65348C38.6987 9.90548 39.506 10.3384 40.1974 10.9239C40.9718 10.8057 41.73 10.599 42.4573 10.308C43.1599 10.0261 43.8101 9.62838 44.3812 9.13148L44.9042 9.50708V11.4121H40.679C41.6009 12.4773 42.0818 13.8541 42.0236 15.2617C42.0426 16.0771 41.8803 16.8866 41.5482 17.6316C41.2162 18.3766 40.7227 19.0385 40.1035 19.5694C38.8203 20.7036 36.9334 21.2707 34.4428 21.2707ZM34.4052 20.5196C34.8492 20.5446 35.291 20.4418 35.6784 20.2235C36.0658 20.0052 36.3825 19.6805 36.591 19.2877C37.1421 17.9918 37.3789 16.5839 37.2821 15.179C37.3846 13.7919 37.1474 12.4006 36.591 11.1258C36.3844 10.7519 36.0771 10.4435 35.704 10.2356C35.3309 10.0276 34.907 9.92848 34.4803 9.94928C34.0529 9.93528 33.6302 10.0416 33.2603 10.2563C32.8904 10.471 32.5883 10.7852 32.3884 11.1633C31.8213 12.4485 31.5776 13.853 31.6786 15.2542C31.5837 16.6439 31.8085 18.0369 32.3359 19.3262C32.5282 19.7046 32.8262 20.0192 33.1936 20.2318C33.561 20.4445 33.9822 20.546 34.4062 20.5243L34.4052 20.5196ZM28.8365 30.8711C28.7929 31.4928 28.8932 32.1161 29.1296 32.6928C29.3661 33.2694 29.7323 33.7837 30.1998 34.1958C31.4711 35.0475 32.9938 35.4428 34.5188 35.3168C36.1382 35.4216 37.7548 35.0731 39.1871 34.3103C39.6796 34.0209 40.0854 33.6046 40.3622 33.1048C40.639 32.6051 40.7766 32.0402 40.7607 31.4692C40.7715 31.1489 40.7079 30.8305 40.575 30.5389C40.442 30.2473 40.2434 29.9905 39.9946 29.7885C39.2187 29.2596 38.3264 28.9262 37.3938 28.8167L30.6327 27.5502L30.0346 27.4009C29.6724 27.9257 29.3833 28.4974 29.1755 29.1003C28.9632 29.6671 28.8486 30.2659 28.8365 30.8711ZM46.1351 27.7379V27.3624L46.658 27.2131C47.0575 27.1373 47.4122 26.9099 47.6477 26.5784C47.8529 26.2132 47.9621 25.802 47.965 25.3831V13.688C47.9964 13.2673 47.9075 12.8462 47.7087 12.474C47.4572 12.1674 47.0947 11.9727 46.7003 11.9323L46.1369 11.783V11.4074L52.5215 9.24038L52.8971 9.61598L53.1957 12.1557C54.0281 11.3255 54.977 10.6208 56.0124 10.0638C57.0242 9.50308 58.1615 9.20748 59.3183 9.20468C60.3281 9.15568 61.3296 9.40938 62.1942 9.93328C62.9704 10.4909 63.5467 11.2832 63.8383 12.1933C64.7672 11.3013 65.8329 10.5637 66.9949 10.0084C68.0234 9.49808 69.1528 9.22388 70.3008 9.20568C71.0034 9.14578 71.7109 9.22738 72.3814 9.44558C73.052 9.66378 73.672 10.0142 74.2048 10.476C75.1315 11.5918 75.5812 13.0279 75.4564 14.473V25.4179C75.4179 25.8346 75.5335 26.2509 75.7812 26.5881C76.029 26.9253 76.3918 27.16 76.8009 27.2478L77.215 27.3624V27.7379H68.5863V27.3624L68.9619 27.2506C69.3617 27.1525 69.713 26.9139 69.9515 26.5784C70.1552 26.2141 70.2528 25.8 70.2332 25.3831V13.9491C70.3162 13.1881 70.1156 12.4232 69.6699 11.8008C69.4253 11.5885 69.1404 11.4278 68.8323 11.3282C68.5241 11.2287 68.1991 11.1924 67.8765 11.2215C67.2236 11.2229 66.5793 11.3698 65.9903 11.6515C65.2949 11.9945 64.648 12.428 64.0664 12.9407C64.1961 13.3659 64.2776 13.8043 64.3096 14.2476C64.3472 14.7208 64.3659 15.2188 64.3659 15.7414V25.4122C64.3372 25.8271 64.4566 26.2386 64.7028 26.5737C64.949 26.9087 65.306 27.1456 65.7105 27.2422L66.0457 27.3624V27.7379H57.3795V27.3624L57.9025 27.2131C58.2986 27.1155 58.6485 26.8831 58.8921 26.5558C59.0974 26.199 59.1952 25.7905 59.1737 25.3794V13.9866C59.2428 13.2357 59.0516 12.4838 58.632 11.8572C58.3886 11.6232 58.097 11.4452 57.7777 11.3356C57.4584 11.226 57.119 11.1874 56.7833 11.2225C56.1847 11.2289 55.5961 11.3763 55.0651 11.6525C54.4163 11.9914 53.8136 12.412 53.2717 12.9041V25.4179C53.2305 25.8295 53.3403 26.2422 53.5808 26.5788C53.8213 26.9155 54.1759 27.1533 54.5787 27.2478L54.9139 27.3624V27.7379H46.1351ZM83.901 28.3013C82.578 28.3429 81.2846 27.9051 80.2589 27.0685C79.758 26.6278 79.3648 26.0782 79.1096 25.4617C78.8544 24.8453 78.7439 24.1786 78.7867 23.5128C78.8191 22.8731 78.9976 22.2494 79.3085 21.6893C79.6193 21.1293 80.0543 20.6479 80.58 20.282C82.2551 19.0999 84.1898 18.3377 86.221 18.0596C86.6197 17.9851 87.0679 17.9041 87.5655 17.8164C88.0632 17.7288 88.5861 17.6349 89.1345 17.5348V14.5838C89.227 13.3619 89.0154 12.1361 88.5185 11.0159C88.3233 10.6838 88.0397 10.4123 87.6995 10.2316C87.3592 10.0509 86.9755 9.96818 86.5909 9.99248C86.3264 9.97968 86.0622 10.025 85.817 10.125C85.5718 10.2251 85.3514 10.3776 85.1713 10.5718C84.7509 11.1551 84.5166 11.8519 84.499 12.5707L84.4239 12.982C84.4515 13.8347 84.1734 14.6691 83.6399 15.3349C83.4172 15.5773 83.1454 15.7696 82.8427 15.8991C82.5401 16.0286 82.2133 16.0923 81.8842 16.086C81.2908 16.1061 80.7135 15.8912 80.2777 15.4879C80.0641 15.2805 79.897 15.0299 79.7876 14.753C79.6781 14.476 79.6289 14.1789 79.643 13.8815C79.6328 13.4016 79.7221 12.9249 79.9054 12.4813C80.0887 12.0377 80.3618 11.6369 80.7077 11.3041C81.5037 10.5579 82.471 10.0191 83.5245 9.73518C84.7624 9.37718 86.0459 9.20098 87.3346 9.21218C89.1898 9.09258 91.0226 9.67238 92.4714 10.8375C93.6794 11.921 94.2835 13.683 94.2835 16.1236V24.3794C94.2835 25.4999 94.8064 26.0601 95.8524 26.0601H96.6739L97.0101 26.3587C96.586 26.912 96.061 27.3801 95.4627 27.7379C94.7269 28.1005 93.9101 28.2677 93.091 28.2234C92.1631 28.2747 91.246 28.0037 90.4949 27.4563C89.8569 26.9412 89.4151 26.2226 89.2434 25.4207C88.5464 26.1732 87.7768 26.855 86.9459 27.4563C86.0445 28.0494 84.9788 28.3425 83.901 28.2938V28.3013ZM86.1797 26.0225C86.6692 26.0247 87.1512 25.9026 87.5806 25.6676C88.1311 25.3503 88.6502 24.9812 89.1307 24.5653V18.2897L88.3796 18.4389C88.1292 18.489 87.8428 18.5388 87.5205 18.5882C86.4825 18.8273 85.5318 19.3511 84.7751 20.1008C84.4253 20.4848 84.1548 20.9342 83.9792 21.423C83.8035 21.9119 83.7262 22.4307 83.7517 22.9495C83.6884 23.7776 83.9421 24.5989 84.4615 25.247C84.6756 25.4913 84.94 25.6864 85.2366 25.819C85.5331 25.9516 85.8549 26.0184 86.1797 26.015V26.0225Z" fill="white"/>
</svg>
