<svg width="33" height="33" viewBox="0 0 33 33" fill="none" xmlns="http://www.w3.org/2000/svg">
<g clip-path="url(#clip0_130_1404)">
<path fill-rule="evenodd" clip-rule="evenodd" d="M5.86023 2.21061L0.0244804 14.4758C0.00227365 14.5214 -0.00476351 14.573 0.00439798 14.6229C0.0135595 14.6728 0.038439 14.7184 0.0753982 14.7532L15.8364 29.8649C15.8811 29.9078 15.9408 29.9318 16.0028 29.9318C16.0648 29.9318 16.1244 29.9078 16.1692 29.8649L31.9302 14.7541C31.9671 14.7194 31.992 14.6737 32.0012 14.6238C32.0103 14.5739 32.0033 14.5224 31.9811 14.4768L26.1453 2.21156C26.1265 2.17037 26.0962 2.13547 26.0581 2.11104C26.02 2.08662 25.9756 2.07369 25.9303 2.07381H6.0771C6.03162 2.07324 5.98694 2.08586 5.94846 2.11013C5.90997 2.13441 5.87933 2.1693 5.86023 2.21061Z" fill="#50AF95"/>
<path fill-rule="evenodd" clip-rule="evenodd" d="M18.0276 15.7353C17.9144 15.7438 17.3298 15.7787 16.0258 15.7787C14.9885 15.7787 14.2521 15.7476 13.9938 15.7353C9.9854 15.5589 6.9935 14.8607 6.9935 14.0248C6.9935 13.1889 9.9854 12.4916 13.9938 12.3124V15.04C14.2559 15.0588 15.0065 15.1032 16.0437 15.1032C17.2883 15.1032 17.9116 15.0513 18.0238 15.0409V12.3143C22.0237 12.4926 25.009 13.1908 25.009 14.0248C25.009 14.8588 22.0246 15.557 18.0238 15.7344L18.0276 15.7353ZM18.0276 12.0322V9.5914H23.6097V5.86938H8.41166V9.5914H13.9928V12.0312C9.45642 12.2397 6.04492 13.1389 6.04492 14.2163C6.04492 15.2938 9.45642 16.192 13.9928 16.4014V24.2228H18.0266V16.3986C22.5527 16.1901 25.9585 15.2919 25.9585 14.2154C25.9585 13.1389 22.5555 12.2407 18.0266 12.0312L18.0276 12.0322Z" fill="white"/>
</g>
<defs>
<clipPath id="clip0_130_1404">
<rect width="32.0056" height="32.0056" fill="white"/>
</clipPath>
</defs>
</svg>
