<svg width="23" height="23" viewBox="0 0 23 23" fill="none" xmlns="http://www.w3.org/2000/svg">
<mask id="path-1-inside-1_114_1288" fill="white">
<path d="M11.3135 22.6274L-0.000231743 11.3137L9.19216 2.12135C10.3637 0.949772 12.2632 0.949772 13.4348 2.12135L22.6272 11.3137L11.3135 22.6274Z"/>
</mask>
<path d="M11.3135 22.6274L-0.000231743 11.3137L9.19216 2.12135C10.3637 0.949772 12.2632 0.949772 13.4348 2.12135L22.6272 11.3137L11.3135 22.6274Z" fill="#05062A"/>
<path d="M11.3135 22.6274L-0.000231743 11.3137L11.3135 22.6274ZM8.48505 1.41424C10.0471 -0.147859 12.5798 -0.147859 14.1419 1.41424L23.3343 10.6066L21.9201 12.0208L12.7277 2.82845C11.9466 2.0474 10.6803 2.0474 9.89926 2.82845L8.48505 1.41424ZM22.6272 11.3137L11.3135 22.6274L22.6272 11.3137ZM-0.707339 10.6066L8.48505 1.41424C10.0471 -0.147859 12.5798 -0.147859 14.1419 1.41424L12.7277 2.82845C11.9466 2.0474 10.6803 2.0474 9.89926 2.82845L0.706875 12.0208L-0.707339 10.6066Z" fill="#4F4F4F" mask="url(#path-1-inside-1_114_1288)"/>
</svg>
