<svg width="112" height="112" viewBox="0 0 112 112" fill="none" xmlns="http://www.w3.org/2000/svg">
<path d="M91.949 30.0495L79.332 35.5673C78.8678 35.7708 78.4653 36.0927 78.1651 36.5006C77.8648 36.9085 77.6773 37.388 77.6213 37.8911C77.5653 38.3943 77.6428 38.9032 77.8461 39.367C78.0494 39.8307 78.3712 40.2329 78.7793 40.5332L81.3767 42.4432L68.4493 57.2733L48.257 44.1665C47.5991 43.7392 46.8134 43.5522 46.0331 43.6373C45.2529 43.7224 44.5262 44.0743 43.9762 44.6333L22.8146 66.14C22.4767 66.4523 22.2059 66.8298 22.0185 67.2497C21.8311 67.6696 21.7311 68.1232 21.7245 68.5828C21.7178 69.0425 21.8048 69.4987 21.98 69.9238C22.1552 70.349 22.415 70.734 22.7437 71.0559C23.0724 71.3778 23.4632 71.6297 23.8923 71.7963C24.3214 71.9629 24.7799 72.0409 25.2401 72.0253C25.7002 72.0098 26.1524 71.9011 26.5693 71.7059C26.9861 71.5106 27.3589 71.2329 27.665 70.8895L46.8754 51.3651L67.2165 64.5653C67.9035 65.0112 68.7286 65.1944 69.5401 65.0814C70.3516 64.9683 71.0949 64.5664 71.6333 63.9498L86.869 46.4755L89.8447 48.6783C90.2533 48.9787 90.7338 49.1664 91.2381 49.2226C91.7423 49.2789 92.2525 49.2015 92.7173 48.9985C93.1821 48.7955 93.5853 48.4739 93.8862 48.066C94.1871 47.6581 94.3752 47.1784 94.4316 46.6749L95.9577 33.0079C96.012 32.5074 95.934 32.0014 95.7316 31.5403C95.5291 31.0793 95.2092 30.6792 94.8037 30.38C94.3982 30.0807 93.9213 29.8928 93.4205 29.8348C92.9196 29.7768 92.4123 29.8508 91.949 30.0495Z" fill="#1D1D1B"/>
<path d="M91.949 30.0495L79.332 35.5673C78.8678 35.7708 78.4653 36.0927 78.1651 36.5006C77.8648 36.9085 77.6773 37.388 77.6213 37.8911C77.5653 38.3943 77.6428 38.9032 77.8461 39.367C78.0494 39.8307 78.3712 40.2329 78.7793 40.5332L81.3767 42.4432L68.4493 57.2733L48.257 44.1665C47.5991 43.7392 46.8134 43.5522 46.0331 43.6373C45.2529 43.7224 44.5262 44.0743 43.9762 44.6333L22.8146 66.14C22.4767 66.4523 22.2059 66.8298 22.0185 67.2497C21.8311 67.6696 21.7311 68.1232 21.7245 68.5828C21.7178 69.0425 21.8048 69.4987 21.98 69.9238C22.1552 70.349 22.415 70.734 22.7437 71.0559C23.0724 71.3778 23.4632 71.6297 23.8923 71.7963C24.3214 71.9629 24.7799 72.0409 25.2401 72.0253C25.7002 72.0098 26.1524 71.9011 26.5693 71.7059C26.9861 71.5106 27.3589 71.2329 27.665 70.8895L46.8754 51.3651L67.2165 64.5653C67.9035 65.0112 68.7286 65.1944 69.5401 65.0814C70.3516 64.9683 71.0949 64.5664 71.6333 63.9498L86.869 46.4755L89.8447 48.6783C90.2533 48.9787 90.7338 49.1664 91.2381 49.2226C91.7423 49.2789 92.2525 49.2015 92.7173 48.9985C93.1821 48.7955 93.5853 48.4739 93.8862 48.066C94.1871 47.6581 94.3752 47.1784 94.4316 46.6749L95.9577 33.0079C96.012 32.5074 95.934 32.0014 95.7316 31.5403C95.5291 31.0793 95.2092 30.6792 94.8037 30.38C94.3982 30.0807 93.9213 29.8928 93.4205 29.8348C92.9196 29.7768 92.4123 29.8508 91.949 30.0495Z" fill="url(#paint0_linear_111_1281)"/>
<g filter="url(#filter0_b_111_1281)">
<path d="M20.1575 49.3022H26.2025C27.3051 49.3022 28.3626 49.7396 29.1423 50.5181C29.9219 51.2965 30.36 52.3524 30.36 53.4533V85.3333H16V53.4533C16 52.3524 16.438 51.2965 17.2177 50.5181C17.9974 49.7396 19.0549 49.3022 20.1575 49.3022Z" fill="#B4DDEA" fill-opacity="0.3"/>
</g>
<g filter="url(#filter1_b_111_1281)">
<path d="M41.1277 36.8533H47.1727C48.2753 36.8533 49.3328 37.2907 50.1125 38.0692C50.8921 38.8476 51.3302 39.9035 51.3302 41.0044V85.3333H36.9702V41.0044C36.9702 39.9035 37.4082 38.8476 38.1879 38.0692C38.9676 37.2907 40.0251 36.8533 41.1277 36.8533Z" fill="#B4DDEA" fill-opacity="0.3"/>
</g>
<g filter="url(#filter2_b_111_1281)">
<path d="M62.4765 26.6667H68.5214C69.6241 26.6667 70.6816 27.104 71.4612 27.8825C72.2409 28.661 72.6789 29.7168 72.6789 30.8178V85.3334H58.3232V30.8178C58.3232 29.7176 58.7607 28.6624 59.5394 27.884C60.3182 27.1057 61.3746 26.6678 62.4765 26.6667Z" fill="#B4DDEA" fill-opacity="0.3"/>
</g>
<rect x="0.5" y="0.5" width="111" height="111" rx="15.5" stroke="#E6ECF2"/>
<defs>
<filter id="filter0_b_111_1281" x="6" y="39.3022" width="34.3599" height="56.0311" filterUnits="userSpaceOnUse" color-interpolation-filters="sRGB">
<feFlood flood-opacity="0" result="BackgroundImageFix"/>
<feGaussianBlur in="BackgroundImageFix" stdDeviation="5"/>
<feComposite in2="SourceAlpha" operator="in" result="effect1_backgroundBlur_111_1281"/>
<feBlend mode="normal" in="SourceGraphic" in2="effect1_backgroundBlur_111_1281" result="shape"/>
</filter>
<filter id="filter1_b_111_1281" x="26.9702" y="26.8533" width="34.3599" height="68.48" filterUnits="userSpaceOnUse" color-interpolation-filters="sRGB">
<feFlood flood-opacity="0" result="BackgroundImageFix"/>
<feGaussianBlur in="BackgroundImageFix" stdDeviation="5"/>
<feComposite in2="SourceAlpha" operator="in" result="effect1_backgroundBlur_111_1281"/>
<feBlend mode="normal" in="SourceGraphic" in2="effect1_backgroundBlur_111_1281" result="shape"/>
</filter>
<filter id="filter2_b_111_1281" x="48.3232" y="16.6667" width="34.3555" height="78.6667" filterUnits="userSpaceOnUse" color-interpolation-filters="sRGB">
<feFlood flood-opacity="0" result="BackgroundImageFix"/>
<feGaussianBlur in="BackgroundImageFix" stdDeviation="5"/>
<feComposite in2="SourceAlpha" operator="in" result="effect1_backgroundBlur_111_1281"/>
<feBlend mode="normal" in="SourceGraphic" in2="effect1_backgroundBlur_111_1281" result="shape"/>
</filter>
<linearGradient id="paint0_linear_111_1281" x1="86.3865" y1="22.2066" x2="21.8791" y2="76.806" gradientUnits="userSpaceOnUse">
<stop stop-color="#1BE0EA"/>
<stop offset="1" stop-color="#4845BA"/>
</linearGradient>
</defs>
</svg>
