<svg width="112" height="112" viewBox="0 0 112 112" fill="none" xmlns="http://www.w3.org/2000/svg">
<g clip-path="url(#clip0_111_1274)">
<path d="M96 42.961V56.0776C96.0001 56.6318 95.8394 57.174 95.5373 57.6387C95.2352 58.1033 94.8048 58.4704 94.2982 58.6955L59.1071 74.3432C58.1291 74.7785 57.0706 75.0036 56 75.0036C54.9295 75.0036 53.8709 74.7785 52.8929 74.3432L17.7018 58.6955C17.1952 58.4704 16.7648 58.1033 16.4627 57.6387C16.1606 57.174 15.9999 56.6318 16 56.0776V42.961C16 41.9927 16.1909 41.0339 16.5617 40.1395C16.9325 39.245 17.476 38.4323 18.1611 37.7479C18.8463 37.0634 19.6596 36.5206 20.5547 36.1505C21.4498 35.7804 22.409 35.5902 23.3777 35.5908H88.6223C89.591 35.5902 90.5502 35.7804 91.4453 36.1505C92.3404 36.5206 93.1537 37.0634 93.8389 37.7479C94.524 38.4323 95.0675 39.245 95.4383 40.1395C95.8091 41.0339 96 41.9927 96 42.961Z" fill="black"/>
<path d="M96 42.961V56.0776C96.0001 56.6318 95.8394 57.174 95.5373 57.6387C95.2352 58.1033 94.8048 58.4704 94.2982 58.6955L59.1071 74.3432C58.1291 74.7785 57.0706 75.0036 56 75.0036C54.9295 75.0036 53.8709 74.7785 52.8929 74.3432L17.7018 58.6955C17.1952 58.4704 16.7648 58.1033 16.4627 57.6387C16.1606 57.174 15.9999 56.6318 16 56.0776V42.961C16 41.9927 16.1909 41.0339 16.5617 40.1395C16.9325 39.245 17.476 38.4323 18.1611 37.7479C18.8463 37.0634 19.6596 36.5206 20.5547 36.1505C21.4498 35.7804 22.409 35.5902 23.3777 35.5908H88.6223C89.591 35.5902 90.5502 35.7804 91.4453 36.1505C92.3404 36.5206 93.1537 37.0634 93.8389 37.7479C94.524 38.4323 95.0675 39.245 95.4383 40.1395C95.8091 41.0339 96 41.9927 96 42.961Z" fill="url(#paint0_linear_111_1274)"/>
<path d="M77.8226 27.6825V35.5907H72.8037V27.6825C72.8025 27.3006 72.6503 26.9347 72.3801 26.6647C72.11 26.3947 71.744 26.2424 71.362 26.2412H40.7928C40.41 26.2412 40.0428 26.393 39.7717 26.6631C39.5006 26.9333 39.3477 27.2998 39.3465 27.6825V35.5907H34.3276V27.6825C34.3301 25.9697 35.0121 24.3277 36.2242 23.117C37.4362 21.9063 39.0793 21.2256 40.7928 21.2244H71.362C73.0751 21.2256 74.7176 21.9065 75.929 23.1173C77.1403 24.3281 77.8213 25.9701 77.8226 27.6825Z" fill="#1D1D1B"/>
<path d="M77.8226 27.6825V35.5907H72.8037V27.6825C72.8025 27.3006 72.6503 26.9347 72.3801 26.6647C72.11 26.3947 71.744 26.2424 71.362 26.2412H40.7928C40.41 26.2412 40.0428 26.393 39.7717 26.6631C39.5006 26.9333 39.3477 27.2998 39.3465 27.6825V35.5907H34.3276V27.6825C34.3301 25.9697 35.0121 24.3277 36.2242 23.117C37.4362 21.9063 39.0793 21.2256 40.7928 21.2244H71.362C73.0751 21.2256 74.7176 21.9065 75.929 23.1173C77.1403 24.3281 77.8213 25.9701 77.8226 27.6825Z" fill="url(#paint1_linear_111_1274)"/>
<g filter="url(#filter0_b_111_1274)">
<path d="M86.8746 40.302H24.8237C21.7999 40.302 19.3486 42.7523 19.3486 45.7749V85.3027C19.3486 88.3252 21.7999 90.7755 24.8237 90.7755H86.8746C89.8984 90.7755 92.3497 88.3252 92.3497 85.3027V45.7749C92.3497 42.7523 89.8984 40.302 86.8746 40.302Z" fill="#B4DDEA" fill-opacity="0.3"/>
</g>
<path d="M57.0952 70.9455H54.5995C53.4882 70.9455 52.5874 71.846 52.5874 72.9568V74.9772C52.5874 76.088 53.4882 76.9885 54.5995 76.9885H57.0952C58.2065 76.9885 59.1073 76.088 59.1073 74.9772V72.9568C59.1073 71.846 58.2065 70.9455 57.0952 70.9455Z" fill="#FFFFFD"/>
<line x1="27.6608" y1="61.7483" x2="55.7483" y2="74.3392" stroke="white" stroke-linecap="round"/>
<line x1="0.5" y1="-0.5" x2="31.2805" y2="-0.5" transform="matrix(-0.912509 0.409056 0.409056 0.912509 85 62)" stroke="white" stroke-linecap="round"/>
</g>
<rect x="0.5" y="0.5" width="111" height="111" rx="15.5" stroke="#E6ECF2"/>
<defs>
<filter id="filter0_b_111_1274" x="9.34863" y="30.302" width="93.001" height="70.4735" filterUnits="userSpaceOnUse" color-interpolation-filters="sRGB">
<feFlood flood-opacity="0" result="BackgroundImageFix"/>
<feGaussianBlur in="BackgroundImageFix" stdDeviation="5"/>
<feComposite in2="SourceAlpha" operator="in" result="effect1_backgroundBlur_111_1274"/>
<feBlend mode="normal" in="SourceGraphic" in2="effect1_backgroundBlur_111_1274" result="shape"/>
</filter>
<linearGradient id="paint0_linear_111_1274" x1="19.0595" y1="32.2122" x2="42.5763" y2="76.6056" gradientUnits="userSpaceOnUse">
<stop stop-color="#1BE0EA"/>
<stop offset="1" stop-color="#4845BA"/>
</linearGradient>
<linearGradient id="paint1_linear_111_1274" x1="16.5665" y1="21.2245" x2="98.7097" y2="58.74" gradientUnits="userSpaceOnUse">
<stop stop-color="#1BE0EA"/>
<stop offset="1" stop-color="#4845BA"/>
</linearGradient>
<clipPath id="clip0_111_1274">
<rect width="80" height="80" fill="white" transform="translate(16 16)"/>
</clipPath>
</defs>
</svg>
