<svg width="112" height="112" viewBox="0 0 112 112" fill="none" xmlns="http://www.w3.org/2000/svg">
<g clip-path="url(#clip0_111_1242)">
<path d="M95.1482 60.6138L80.9911 46.4744C83.7164 42.6408 84.8951 37.9217 84.292 33.2583C83.689 28.595 81.3485 24.3301 77.7374 21.3144C74.1264 18.2987 69.5101 16.7538 64.8094 16.9877C60.1087 17.2217 55.669 19.2174 52.3759 22.5767C49.0827 25.9361 47.1781 30.4123 47.042 35.1125C46.9059 39.8126 48.5482 44.3913 51.6414 47.9353C54.7347 51.4792 59.0514 53.728 63.7307 54.2331C68.41 54.7382 73.108 53.4626 76.8875 50.6605L91.0014 64.7566C91.5513 65.306 92.2971 65.6147 93.0748 65.6147C93.8525 65.6147 94.5983 65.306 95.1482 64.7566C95.6981 64.2072 96.007 63.4621 96.007 62.6852C96.007 61.9082 95.6981 61.1632 95.1482 60.6138ZM52.2532 35.6225C52.2532 32.9591 53.0438 30.3555 54.525 28.1411C56.0062 25.9266 58.1114 24.2006 60.5745 23.1816C63.0376 22.1626 65.7478 21.8962 68.3624 22.4161C70.9771 22.936 73.3787 24.219 75.2634 26.1026C77.1482 27.9862 78.4316 30.3858 78.9511 32.9981C79.4707 35.6104 79.2032 38.318 78.1824 40.7785C77.1616 43.2389 75.4334 45.3417 73.2163 46.8208C70.9993 48.2998 68.393 49.0888 65.7271 49.0879C62.1532 49.0868 58.7261 47.6676 56.1993 45.1424C53.6726 42.6173 52.2532 39.193 52.2532 35.6225Z" fill="black"/>
<path d="M95.1482 60.6138L80.9911 46.4744C83.7164 42.6408 84.8951 37.9217 84.292 33.2583C83.689 28.595 81.3485 24.3301 77.7374 21.3144C74.1264 18.2987 69.5101 16.7538 64.8094 16.9877C60.1087 17.2217 55.669 19.2174 52.3759 22.5767C49.0827 25.9361 47.1781 30.4123 47.042 35.1125C46.9059 39.8126 48.5482 44.3913 51.6414 47.9353C54.7347 51.4792 59.0514 53.728 63.7307 54.2331C68.41 54.7382 73.108 53.4626 76.8875 50.6605L91.0014 64.7566C91.5513 65.306 92.2971 65.6147 93.0748 65.6147C93.8525 65.6147 94.5983 65.306 95.1482 64.7566C95.6981 64.2072 96.007 63.4621 96.007 62.6852C96.007 61.9082 95.6981 61.1632 95.1482 60.6138ZM52.2532 35.6225C52.2532 32.9591 53.0438 30.3555 54.525 28.1411C56.0062 25.9266 58.1114 24.2006 60.5745 23.1816C63.0376 22.1626 65.7478 21.8962 68.3624 22.4161C70.9771 22.936 73.3787 24.219 75.2634 26.1026C77.1482 27.9862 78.4316 30.3858 78.9511 32.9981C79.4707 35.6104 79.2032 38.318 78.1824 40.7785C77.1616 43.2389 75.4334 45.3417 73.2163 46.8208C70.9993 48.2998 68.393 49.0888 65.7271 49.0879C62.1532 49.0868 58.7261 47.6676 56.1993 45.1424C53.6726 42.6173 52.2532 39.193 52.2532 35.6225Z" fill="url(#paint0_linear_111_1242)"/>
<g filter="url(#filter0_b_111_1242)">
<path d="M59.2409 33.0305H21.1889C18.3232 33.0305 16 35.3515 16 38.2145V89.912C16 92.7751 18.3232 95.096 21.1889 95.096H59.2409C62.1067 95.096 64.4298 92.7751 64.4298 89.912V38.2145C64.4298 35.3515 62.1067 33.0305 59.2409 33.0305Z" fill="#B4DDEA" fill-opacity="0.3"/>
</g>
<path d="M54.8475 45.416H26.0188C25.183 45.416 24.5054 46.0929 24.5054 46.928C24.5054 47.763 25.183 48.44 26.0188 48.44H54.8475C55.6834 48.44 56.3609 47.763 56.3609 46.928C56.3609 46.0929 55.6834 45.416 54.8475 45.416Z" fill="white"/>
<path d="M54.8475 56.648H26.0188C25.183 56.648 24.5054 57.3249 24.5054 58.16C24.5054 58.9951 25.183 59.672 26.0188 59.672H54.8475C55.6834 59.672 56.3609 58.9951 56.3609 58.16C56.3609 57.3249 55.6834 56.648 54.8475 56.648Z" fill="white"/>
<path d="M54.8475 67.88H26.0188C25.183 67.88 24.5054 68.557 24.5054 69.392C24.5054 70.2271 25.183 70.904 26.0188 70.904H54.8475C55.6834 70.904 56.3609 70.2271 56.3609 69.392C56.3609 68.557 55.6834 67.88 54.8475 67.88Z" fill="white"/>
<path d="M54.8475 79.112H26.0188C25.183 79.112 24.5054 79.789 24.5054 80.624C24.5054 81.4591 25.183 82.136 26.0188 82.136H54.8475C55.6834 82.136 56.3609 81.4591 56.3609 80.624C56.3609 79.789 55.6834 79.112 54.8475 79.112Z" fill="white"/>
</g>
<rect x="0.5" y="0.5" width="111" height="111" rx="15.5" stroke="#E6ECF2"/>
<defs>
<filter id="filter0_b_111_1242" x="6" y="23.0305" width="68.4297" height="82.0655" filterUnits="userSpaceOnUse" color-interpolation-filters="sRGB">
<feFlood flood-opacity="0" result="BackgroundImageFix"/>
<feGaussianBlur in="BackgroundImageFix" stdDeviation="5"/>
<feComposite in2="SourceAlpha" operator="in" result="effect1_backgroundBlur_111_1242"/>
<feBlend mode="normal" in="SourceGraphic" in2="effect1_backgroundBlur_111_1242" result="shape"/>
</filter>
<linearGradient id="paint0_linear_111_1242" x1="27.0361" y1="16.9647" x2="136.297" y2="33.556" gradientUnits="userSpaceOnUse">
<stop stop-color="#1BE0EA"/>
<stop offset="1" stop-color="#4845BA"/>
</linearGradient>
<clipPath id="clip0_111_1242">
<rect width="80" height="80" fill="white" transform="translate(16 16)"/>
</clipPath>
</defs>
</svg>
