<svg width="33" height="33" viewBox="0 0 33 33" fill="none" xmlns="http://www.w3.org/2000/svg">
<rect width="32.0056" height="32.0056" rx="16.0028" fill="#2775CA"/>
<path d="M20.025 18.1271C20.025 16.0028 18.7447 15.2746 16.1843 14.9706C14.356 14.7275 13.9909 14.2425 13.9909 13.3923C13.9909 12.5422 14.601 11.9961 15.8192 11.9961C16.9164 11.9961 17.5265 12.3601 17.8306 13.2713C17.8623 13.3594 17.9202 13.4357 17.9965 13.4899C18.0729 13.544 18.164 13.5735 18.2576 13.5743H19.2328C19.2891 13.5758 19.3452 13.5659 19.3976 13.5451C19.4499 13.5243 19.4975 13.4931 19.5374 13.4533C19.5774 13.4136 19.6088 13.3661 19.6299 13.3139C19.6509 13.2616 19.6611 13.2056 19.6599 13.1493V13.0893C19.5407 12.43 19.2072 11.8286 18.7111 11.3785C18.215 10.9283 17.5841 10.6546 16.9164 10.5998V9.14356C16.9164 8.90051 16.7334 8.71848 16.4293 8.65747H15.5142C15.2711 8.65747 15.0881 8.8395 15.0271 9.14356V10.5398C13.1978 10.7818 12.0406 11.9961 12.0406 13.5143C12.0406 15.5167 13.2588 16.3058 15.8192 16.6099C17.5265 16.9129 18.0746 17.278 18.0746 18.2492C18.0746 19.2193 17.2215 19.8874 16.0633 19.8874C14.478 19.8874 13.9299 19.2203 13.7469 18.3092C13.6868 18.0671 13.5028 17.9451 13.3198 17.9451H12.2836C12.2274 17.9437 12.1714 17.9538 12.1192 17.9747C12.0669 17.9955 12.0195 18.0268 11.9796 18.0665C11.9398 18.1062 11.9085 18.1536 11.8875 18.2058C11.8665 18.258 11.8563 18.3139 11.8575 18.3702V18.4302C12.1006 19.9485 13.0767 21.0407 15.0881 21.3447V22.802C15.0881 23.044 15.2711 23.227 15.5752 23.287H16.4903C16.7334 23.287 16.9164 23.105 16.9774 22.802V21.3437C18.8067 21.0407 20.025 19.7654 20.025 18.1261V18.1271Z" fill="white"/>
<path d="M12.8942 24.5013C8.13933 22.801 5.7009 17.5201 7.46921 12.8463C8.38337 10.2958 10.3947 8.35448 12.8942 7.44332C13.1382 7.3223 13.2592 7.14027 13.2592 6.83621V5.98606C13.2592 5.74402 13.1382 5.56199 12.8942 5.50098C12.8332 5.50098 12.7111 5.50098 12.6501 5.56099C11.2783 5.98939 10.0048 6.68491 8.90288 7.60752C7.80098 8.53013 6.89246 9.66159 6.22964 10.9368C5.56681 12.2119 5.16277 13.6056 5.04079 15.0376C4.91881 16.4695 5.08128 17.9115 5.51887 19.2804C6.61506 22.681 9.23652 25.2915 12.6501 26.3837C12.8942 26.5047 13.1382 26.3837 13.1982 26.1406C13.2592 26.0806 13.2592 26.0186 13.2592 25.8976V25.0474C13.2592 24.8654 13.0772 24.6233 12.8942 24.5013V24.5013ZM19.3553 5.56199C19.1113 5.43997 18.8672 5.56199 18.8072 5.80403C18.7462 5.86504 18.7462 5.92605 18.7462 6.04707V6.89722C18.7462 7.14027 18.9282 7.38231 19.1113 7.50433C23.8661 9.20463 26.3045 14.4856 24.5362 19.1594C23.6221 21.7098 21.6107 23.6512 19.1113 24.5623C18.8672 24.6834 18.7462 24.8654 18.7462 25.1694V26.0196C18.7462 26.2616 18.8672 26.4437 19.1113 26.5047C19.1723 26.5047 19.2943 26.5047 19.3553 26.4447C20.7271 26.0163 22.0006 25.3207 23.1025 24.3981C24.2044 23.4755 25.113 22.3441 25.7758 21.0689C26.4386 19.7937 26.8426 18.4 26.9646 16.9681C27.0866 15.5361 26.9241 14.0942 26.4866 12.7252C25.3904 9.26464 22.7079 6.65418 19.3553 5.56199V5.56199Z" fill="white"/>
</svg>
