<svg width="60" height="60" viewBox="0 0 60 60" fill="none" xmlns="http://www.w3.org/2000/svg">
<rect width="60" height="60" rx="16" fill="#F9FAFD"/>
<path d="M34.9985 21.2513H24.9985C20.166 21.2513 16.2485 25.1688 16.2485 30.0013C16.2485 34.8338 20.166 38.7513 24.9985 38.7513H34.9985C39.831 38.7513 43.7486 34.8338 43.7486 30.0013C43.7486 25.1688 39.831 21.2513 34.9985 21.2513Z" stroke="#05062B" stroke-width="2" stroke-linecap="round" stroke-linejoin="round"/>
<path d="M34.9985 26.25C34.004 26.25 33.0502 26.6451 32.3469 27.3483C31.6436 28.0516 31.2485 29.0054 31.2485 30C31.2485 30.9945 31.6436 31.9483 32.3469 32.6517C33.0502 33.3549 34.004 33.75 34.9985 33.75C35.9931 33.75 36.947 33.3549 37.6502 32.6517C38.3534 31.9483 38.7485 30.9945 38.7485 30C38.7485 29.0054 38.3534 28.0516 37.6502 27.3483C36.947 26.6451 35.9931 26.25 34.9985 26.25Z" stroke="#05062B" stroke-width="2" stroke-linecap="round" stroke-linejoin="round"/>
</svg>
